<svg xmlns="http://www.w3.org/2000/svg" xmlns:xlink="http://www.w3.org/1999/xlink" width="1400" zoomAndPan="magnify" viewBox="0 0 1050 374.999991" height="500" preserveAspectRatio="xMidYMid meet" version="1.0"><defs><g/><clipPath id="4570158d83"><rect x="0" width="577" y="0" height="285"/></clipPath><clipPath id="b384e25a40"><rect x="0" width="163" y="0" height="56"/></clipPath></defs><g transform="matrix(1, 0, 0, 1, 236, 36)"><g clip-path="url(#4570158d83)"><g fill="#9f7940" fill-opacity="0.4"><g transform="translate(2.825215, 229.660009)"><g><path d="M 90.15625 4.46875 C 78.070312 4.46875 67.296875 2.304688 57.828125 -2.015625 C 48.359375 -6.335938 40.34375 -12.335938 33.78125 -20.015625 C 27.21875 -27.703125 22.179688 -36.613281 18.671875 -46.75 C 15.171875 -56.894531 13.421875 -67.710938 13.421875 -79.203125 C 13.421875 -90.679688 15.171875 -101.488281 18.671875 -111.625 C 22.179688 -121.769531 27.21875 -130.679688 33.78125 -138.359375 C 40.34375 -146.046875 48.359375 -152.050781 57.828125 -156.375 C 67.296875 -160.695312 78.070312 -162.859375 90.15625 -162.859375 C 102.238281 -162.859375 112.601562 -161.289062 121.25 -158.15625 C 129.90625 -155.03125 136.988281 -150.929688 142.5 -145.859375 C 148.019531 -140.796875 152.082031 -135.28125 154.6875 -129.3125 C 157.300781 -123.34375 158.609375 -117.523438 158.609375 -111.859375 C 158.460938 -99.179688 154.882812 -89.257812 147.875 -82.09375 C 140.863281 -74.9375 130.945312 -71.359375 118.125 -71.359375 C 109.175781 -71.359375 101.53125 -72.363281 95.1875 -74.375 C 88.851562 -76.394531 83.257812 -78.707031 78.40625 -81.3125 C 73.5625 -83.925781 68.863281 -86.238281 64.3125 -88.25 C 59.769531 -90.269531 54.738281 -91.28125 49.21875 -91.28125 C 46.53125 -91.28125 44.101562 -90.570312 41.9375 -89.15625 C 39.78125 -87.738281 38.550781 -86.582031 38.25 -85.6875 L 37.359375 -85.90625 C 37.359375 -90.53125 39.332031 -94.671875 43.28125 -98.328125 C 47.238281 -101.984375 53.09375 -103.8125 60.84375 -103.8125 C 66.664062 -103.8125 72.1875 -102.316406 77.40625 -99.328125 C 82.625 -96.347656 87.617188 -92.878906 92.390625 -88.921875 C 97.171875 -84.972656 101.796875 -81.503906 106.265625 -78.515625 C 110.742188 -75.535156 115.21875 -74.046875 119.6875 -74.046875 C 125.207031 -74.046875 129.753906 -76.132812 133.328125 -80.3125 C 136.910156 -84.488281 139.410156 -89.820312 140.828125 -96.3125 C 142.242188 -102.800781 142.351562 -109.734375 141.15625 -117.109375 C 139.96875 -124.492188 137.359375 -131.429688 133.328125 -137.921875 C 129.304688 -144.410156 123.710938 -149.742188 116.546875 -153.921875 C 109.390625 -158.097656 100.445312 -160.1875 89.71875 -160.1875 C 80.613281 -160.1875 72.78125 -158.429688 66.21875 -154.921875 C 59.65625 -151.421875 54.210938 -146.757812 49.890625 -140.9375 C 45.566406 -135.125 42.097656 -128.710938 39.484375 -121.703125 C 36.878906 -114.691406 35.050781 -107.53125 34 -100.21875 C 32.957031 -92.914062 32.507812 -86.132812 32.65625 -79.875 C 32.8125 -69.425781 34.378906 -59.578125 37.359375 -50.328125 C 40.335938 -41.085938 44.625 -32.925781 50.21875 -25.84375 C 55.8125 -18.757812 62.632812 -13.203125 70.6875 -9.171875 C 78.75 -5.140625 87.925781 -3.125 98.21875 -3.125 C 102.6875 -3.125 107.679688 -3.796875 113.203125 -5.140625 C 118.722656 -6.484375 124.28125 -8.644531 129.875 -11.625 C 135.46875 -14.613281 140.613281 -18.566406 145.3125 -23.484375 C 150.007812 -28.410156 153.695312 -34.453125 156.375 -41.609375 L 159.515625 -40.265625 C 153.691406 -26.992188 144.851562 -16.21875 133 -7.9375 C 121.144531 0.332031 106.863281 4.46875 90.15625 4.46875 Z M 90.15625 4.46875 "/></g></g></g><g fill="#9f7940" fill-opacity="0.4"><g transform="translate(172.17205, 229.660009)"><g><path d="M 4.46875 -158.390625 C 11.925781 -158.390625 18.039062 -159.734375 22.8125 -162.421875 C 27.59375 -165.109375 31.285156 -168.613281 33.890625 -172.9375 C 36.503906 -177.257812 38.40625 -181.914062 39.59375 -186.90625 C 40.789062 -191.90625 41.5 -196.679688 41.71875 -201.234375 C 41.945312 -205.785156 42.0625 -209.550781 42.0625 -212.53125 L 44.296875 -212.53125 L 44.296875 -158.390625 L 61.296875 -158.390625 L 61.296875 -156.15625 L 44.296875 -156.15625 L 44.296875 -48.765625 C 44.296875 -37.140625 44.296875 -27.894531 44.296875 -21.03125 C 44.296875 -14.164062 44.78125 -9.242188 45.75 -6.265625 C 46.71875 -3.285156 48.617188 -1.796875 51.453125 -1.796875 C 53.835938 -1.796875 56 -2.648438 57.9375 -4.359375 C 59.875 -6.078125 61.441406 -7.828125 62.640625 -9.609375 C 63.835938 -11.398438 64.4375 -12.296875 64.4375 -12.296875 L 66.671875 -11.1875 C 63.835938 -6.414062 60.441406 -2.613281 56.484375 0.21875 C 52.535156 3.050781 47.726562 4.46875 42.0625 4.46875 C 35.644531 4.46875 31.207031 2.117188 28.75 -2.578125 C 26.289062 -7.273438 25.0625 -13.273438 25.0625 -20.578125 L 25.0625 -156.15625 L 4.46875 -156.15625 Z M 4.46875 -158.390625 "/></g></g></g><g fill="#9f7940" fill-opacity="0.4"><g transform="translate(239.73162, 229.660009)"><g><path d="M 6.71875 -2.234375 C 13.125 -2.234375 17.78125 -4.171875 20.6875 -8.046875 C 23.601562 -11.929688 25.429688 -18.269531 26.171875 -27.0625 C 26.921875 -35.863281 27.296875 -47.570312 27.296875 -62.1875 L 27.296875 -96.203125 C 27.296875 -110.960938 26.921875 -122.703125 26.171875 -131.421875 C 25.429688 -140.148438 23.601562 -146.453125 20.6875 -150.328125 C 17.78125 -154.210938 13.125 -156.15625 6.71875 -156.15625 L 6.71875 -158.390625 L 32.21875 -158.390625 C 38.332031 -158.390625 45.15625 -158.757812 52.6875 -159.5 C 60.21875 -160.25 67.488281 -160.992188 74.5 -161.734375 C 81.507812 -162.484375 87.101562 -162.859375 91.28125 -162.859375 C 95.300781 -162.859375 99.882812 -162.597656 105.03125 -162.078125 C 110.175781 -161.554688 115.429688 -160.4375 120.796875 -158.71875 C 126.171875 -157.007812 131.132812 -154.363281 135.6875 -150.78125 C 140.238281 -147.207031 143.929688 -142.363281 146.765625 -136.25 C 149.597656 -130.132812 151.015625 -122.378906 151.015625 -112.984375 L 151.015625 -62.1875 C 151.015625 -47.570312 151.382812 -35.863281 152.125 -27.0625 C 152.875 -18.269531 154.703125 -11.929688 157.609375 -8.046875 C 160.515625 -4.171875 165.175781 -2.234375 171.59375 -2.234375 L 171.59375 0 L 111.1875 0 L 111.1875 -2.234375 C 117.601562 -2.234375 122.265625 -4.171875 125.171875 -8.046875 C 128.078125 -11.929688 129.898438 -18.269531 130.640625 -27.0625 C 131.390625 -35.863281 131.765625 -47.570312 131.765625 -62.1875 C 131.765625 -63.53125 131.765625 -65.953125 131.765625 -69.453125 C 131.765625 -72.960938 131.765625 -76.914062 131.765625 -81.3125 C 131.765625 -85.71875 131.726562 -89.96875 131.65625 -94.0625 C 131.582031 -98.164062 131.546875 -101.5625 131.546875 -104.25 C 131.546875 -106.9375 131.546875 -108.28125 131.546875 -108.28125 C 131.546875 -118.269531 130.3125 -126.472656 127.84375 -132.890625 C 125.382812 -139.304688 122.179688 -144.335938 118.234375 -147.984375 C 114.285156 -151.640625 110.035156 -154.320312 105.484375 -156.03125 C 100.929688 -157.75 96.492188 -158.796875 92.171875 -159.171875 C 87.847656 -159.546875 84.191406 -159.734375 81.203125 -159.734375 C 75.535156 -159.734375 69.679688 -159.132812 63.640625 -157.9375 C 57.609375 -156.75 51.90625 -155.1875 46.53125 -153.25 L 46.53125 -62.1875 C 46.53125 -47.570312 46.898438 -35.863281 47.640625 -27.0625 C 48.390625 -18.269531 50.21875 -11.929688 53.125 -8.046875 C 56.039062 -4.171875 60.703125 -2.234375 67.109375 -2.234375 L 67.109375 0 L 6.71875 0 Z M 6.71875 -2.234375 "/></g></g></g><g fill="#9f7940" fill-opacity="0.4"><g transform="translate(412.210376, 229.660009)"><g><path d="M 13.421875 -45.1875 C 13.421875 -56.375 15.472656 -65.660156 19.578125 -73.046875 C 23.679688 -80.429688 29.085938 -86.429688 35.796875 -91.046875 C 42.503906 -95.671875 49.882812 -99.363281 57.9375 -102.125 C 66 -104.882812 74.054688 -107.195312 82.109375 -109.0625 C 90.160156 -110.925781 97.539062 -112.863281 104.25 -114.875 C 110.957031 -116.894531 116.363281 -119.46875 120.46875 -122.59375 C 124.570312 -125.726562 126.625 -129.90625 126.625 -135.125 C 126.625 -141.238281 124.609375 -146.160156 120.578125 -149.890625 C 116.554688 -153.617188 111.5625 -156.335938 105.59375 -158.046875 C 99.625 -159.765625 93.582031 -160.625 87.46875 -160.625 C 80.457031 -160.625 73.742188 -159.765625 67.328125 -158.046875 C 60.921875 -156.335938 55.703125 -153.582031 51.671875 -149.78125 C 47.648438 -145.976562 45.640625 -140.941406 45.640625 -134.671875 C 45.640625 -130.503906 46.867188 -127.488281 49.328125 -125.625 C 51.785156 -123.757812 53.539062 -123.347656 54.59375 -124.390625 C 55.78125 -121.109375 54.921875 -118.125 52.015625 -115.4375 C 49.109375 -112.75 45.789062 -111.40625 42.0625 -111.40625 C 37.289062 -111.40625 33.410156 -113.195312 30.421875 -116.78125 C 27.441406 -120.363281 25.953125 -124.539062 25.953125 -129.3125 C 25.953125 -136.769531 28.632812 -142.957031 34 -147.875 C 39.375 -152.800781 46.722656 -156.53125 56.046875 -159.0625 C 65.367188 -161.59375 75.84375 -162.859375 87.46875 -162.859375 C 93.738281 -162.859375 100.265625 -162.222656 107.046875 -160.953125 C 113.835938 -159.691406 120.140625 -157.832031 125.953125 -155.375 C 131.765625 -152.914062 136.5 -149.96875 140.15625 -146.53125 C 143.8125 -143.101562 145.640625 -139.148438 145.640625 -134.671875 C 145.640625 -130.203125 144.070312 -126.625 140.9375 -123.9375 C 137.8125 -121.25 133.5625 -119.125 128.1875 -117.5625 C 122.820312 -116 116.78125 -114.546875 110.0625 -113.203125 C 103.351562 -111.859375 96.457031 -110.328125 89.375 -108.609375 C 82.289062 -106.898438 75.390625 -104.550781 68.671875 -101.5625 C 61.960938 -98.582031 55.921875 -94.707031 50.546875 -89.9375 C 45.179688 -85.164062 40.929688 -79.015625 37.796875 -71.484375 C 34.671875 -63.953125 33.109375 -54.738281 33.109375 -43.84375 C 33.109375 -36.09375 34.632812 -29.117188 37.6875 -22.921875 C 40.75 -16.734375 45.039062 -11.847656 50.5625 -8.265625 C 56.082031 -4.691406 62.492188 -2.90625 69.796875 -2.90625 C 75.910156 -2.90625 82.132812 -4.546875 88.46875 -7.828125 C 94.8125 -11.109375 100.742188 -16.328125 106.265625 -23.484375 C 111.785156 -30.648438 116.222656 -39.9375 119.578125 -51.34375 C 122.929688 -62.75 124.609375 -76.582031 124.609375 -92.84375 C 124.609375 -95.375 124.382812 -97.722656 123.9375 -99.890625 C 123.488281 -102.054688 122.445312 -103.363281 120.8125 -103.8125 C 120.8125 -104.550781 121.367188 -105.253906 122.484375 -105.921875 C 123.597656 -106.597656 125.050781 -106.9375 126.84375 -106.9375 C 132.363281 -106.9375 136.390625 -105.257812 138.921875 -101.90625 C 141.460938 -98.550781 143.140625 -94.222656 143.953125 -88.921875 C 144.773438 -83.628906 145.1875 -78 145.1875 -72.03125 C 145.1875 -67.113281 145.1875 -62.976562 145.1875 -59.625 C 145.1875 -56.269531 145.222656 -53.0625 145.296875 -50 C 145.378906 -46.945312 145.421875 -43.515625 145.421875 -39.703125 C 145.421875 -35.898438 145.421875 -31.019531 145.421875 -25.0625 C 145.421875 -18.789062 146.425781 -14.015625 148.4375 -10.734375 C 150.445312 -7.453125 152.796875 -5.210938 155.484375 -4.015625 C 158.171875 -2.828125 160.484375 -2.234375 162.421875 -2.234375 L 162.421875 0 L 146.53125 0 C 140.570312 0 135.539062 -2.535156 131.4375 -7.609375 C 127.332031 -12.679688 125.28125 -19.390625 125.28125 -27.734375 L 125.28125 -66 C 123.34375 -56.445312 120.804688 -47.421875 117.671875 -38.921875 C 114.546875 -30.421875 110.632812 -22.890625 105.9375 -16.328125 C 101.238281 -9.765625 95.421875 -4.65625 88.484375 -1 C 81.546875 2.644531 73.15625 4.46875 63.3125 4.46875 C 53.769531 4.46875 45.234375 2.34375 37.703125 -1.90625 C 30.171875 -6.15625 24.238281 -12.046875 19.90625 -19.578125 C 15.582031 -27.109375 13.421875 -35.644531 13.421875 -45.1875 Z M 13.421875 -45.1875 "/></g></g></g><g fill="#000000" fill-opacity="1"><g transform="translate(0.847705, 227.682501)"><g><path d="M 90.15625 4.46875 C 78.070312 4.46875 67.296875 2.304688 57.828125 -2.015625 C 48.359375 -6.335938 40.34375 -12.335938 33.78125 -20.015625 C 27.21875 -27.703125 22.179688 -36.613281 18.671875 -46.75 C 15.171875 -56.894531 13.421875 -67.710938 13.421875 -79.203125 C 13.421875 -90.679688 15.171875 -101.488281 18.671875 -111.625 C 22.179688 -121.769531 27.21875 -130.679688 33.78125 -138.359375 C 40.34375 -146.046875 48.359375 -152.050781 57.828125 -156.375 C 67.296875 -160.695312 78.070312 -162.859375 90.15625 -162.859375 C 102.238281 -162.859375 112.601562 -161.289062 121.25 -158.15625 C 129.90625 -155.03125 136.988281 -150.929688 142.5 -145.859375 C 148.019531 -140.796875 152.082031 -135.28125 154.6875 -129.3125 C 157.300781 -123.34375 158.609375 -117.523438 158.609375 -111.859375 C 158.460938 -99.179688 154.882812 -89.257812 147.875 -82.09375 C 140.863281 -74.9375 130.945312 -71.359375 118.125 -71.359375 C 109.175781 -71.359375 101.53125 -72.363281 95.1875 -74.375 C 88.851562 -76.394531 83.257812 -78.707031 78.40625 -81.3125 C 73.5625 -83.925781 68.863281 -86.238281 64.3125 -88.25 C 59.769531 -90.269531 54.738281 -91.28125 49.21875 -91.28125 C 46.53125 -91.28125 44.101562 -90.570312 41.9375 -89.15625 C 39.78125 -87.738281 38.550781 -86.582031 38.25 -85.6875 L 37.359375 -85.90625 C 37.359375 -90.53125 39.332031 -94.671875 43.28125 -98.328125 C 47.238281 -101.984375 53.09375 -103.8125 60.84375 -103.8125 C 66.664062 -103.8125 72.1875 -102.316406 77.40625 -99.328125 C 82.625 -96.347656 87.617188 -92.878906 92.390625 -88.921875 C 97.171875 -84.972656 101.796875 -81.503906 106.265625 -78.515625 C 110.742188 -75.535156 115.21875 -74.046875 119.6875 -74.046875 C 125.207031 -74.046875 129.753906 -76.132812 133.328125 -80.3125 C 136.910156 -84.488281 139.410156 -89.820312 140.828125 -96.3125 C 142.242188 -102.800781 142.351562 -109.734375 141.15625 -117.109375 C 139.96875 -124.492188 137.359375 -131.429688 133.328125 -137.921875 C 129.304688 -144.410156 123.710938 -149.742188 116.546875 -153.921875 C 109.390625 -158.097656 100.445312 -160.1875 89.71875 -160.1875 C 80.613281 -160.1875 72.78125 -158.429688 66.21875 -154.921875 C 59.65625 -151.421875 54.210938 -146.757812 49.890625 -140.9375 C 45.566406 -135.125 42.097656 -128.710938 39.484375 -121.703125 C 36.878906 -114.691406 35.050781 -107.53125 34 -100.21875 C 32.957031 -92.914062 32.507812 -86.132812 32.65625 -79.875 C 32.8125 -69.425781 34.378906 -59.578125 37.359375 -50.328125 C 40.335938 -41.085938 44.625 -32.925781 50.21875 -25.84375 C 55.8125 -18.757812 62.632812 -13.203125 70.6875 -9.171875 C 78.75 -5.140625 87.925781 -3.125 98.21875 -3.125 C 102.6875 -3.125 107.679688 -3.796875 113.203125 -5.140625 C 118.722656 -6.484375 124.28125 -8.644531 129.875 -11.625 C 135.46875 -14.613281 140.613281 -18.566406 145.3125 -23.484375 C 150.007812 -28.410156 153.695312 -34.453125 156.375 -41.609375 L 159.515625 -40.265625 C 153.691406 -26.992188 144.851562 -16.21875 133 -7.9375 C 121.144531 0.332031 106.863281 4.46875 90.15625 4.46875 Z M 90.15625 4.46875 "/></g></g></g><g fill="#000000" fill-opacity="1"><g transform="translate(170.19454, 227.682501)"><g><path d="M 4.46875 -158.390625 C 11.925781 -158.390625 18.039062 -159.734375 22.8125 -162.421875 C 27.59375 -165.109375 31.285156 -168.613281 33.890625 -172.9375 C 36.503906 -177.257812 38.40625 -181.914062 39.59375 -186.90625 C 40.789062 -191.90625 41.5 -196.679688 41.71875 -201.234375 C 41.945312 -205.785156 42.0625 -209.550781 42.0625 -212.53125 L 44.296875 -212.53125 L 44.296875 -158.390625 L 61.296875 -158.390625 L 61.296875 -156.15625 L 44.296875 -156.15625 L 44.296875 -48.765625 C 44.296875 -37.140625 44.296875 -27.894531 44.296875 -21.03125 C 44.296875 -14.164062 44.78125 -9.242188 45.75 -6.265625 C 46.71875 -3.285156 48.617188 -1.796875 51.453125 -1.796875 C 53.835938 -1.796875 56 -2.648438 57.9375 -4.359375 C 59.875 -6.078125 61.441406 -7.828125 62.640625 -9.609375 C 63.835938 -11.398438 64.4375 -12.296875 64.4375 -12.296875 L 66.671875 -11.1875 C 63.835938 -6.414062 60.441406 -2.613281 56.484375 0.21875 C 52.535156 3.050781 47.726562 4.46875 42.0625 4.46875 C 35.644531 4.46875 31.207031 2.117188 28.75 -2.578125 C 26.289062 -7.273438 25.0625 -13.273438 25.0625 -20.578125 L 25.0625 -156.15625 L 4.46875 -156.15625 Z M 4.46875 -158.390625 "/></g></g></g><g fill="#000000" fill-opacity="1"><g transform="translate(237.754111, 227.682501)"><g><path d="M 6.71875 -2.234375 C 13.125 -2.234375 17.78125 -4.171875 20.6875 -8.046875 C 23.601562 -11.929688 25.429688 -18.269531 26.171875 -27.0625 C 26.921875 -35.863281 27.296875 -47.570312 27.296875 -62.1875 L 27.296875 -96.203125 C 27.296875 -110.960938 26.921875 -122.703125 26.171875 -131.421875 C 25.429688 -140.148438 23.601562 -146.453125 20.6875 -150.328125 C 17.78125 -154.210938 13.125 -156.15625 6.71875 -156.15625 L 6.71875 -158.390625 L 32.21875 -158.390625 C 38.332031 -158.390625 45.15625 -158.757812 52.6875 -159.5 C 60.21875 -160.25 67.488281 -160.992188 74.5 -161.734375 C 81.507812 -162.484375 87.101562 -162.859375 91.28125 -162.859375 C 95.300781 -162.859375 99.882812 -162.597656 105.03125 -162.078125 C 110.175781 -161.554688 115.429688 -160.4375 120.796875 -158.71875 C 126.171875 -157.007812 131.132812 -154.363281 135.6875 -150.78125 C 140.238281 -147.207031 143.929688 -142.363281 146.765625 -136.25 C 149.597656 -130.132812 151.015625 -122.378906 151.015625 -112.984375 L 151.015625 -62.1875 C 151.015625 -47.570312 151.382812 -35.863281 152.125 -27.0625 C 152.875 -18.269531 154.703125 -11.929688 157.609375 -8.046875 C 160.515625 -4.171875 165.175781 -2.234375 171.59375 -2.234375 L 171.59375 0 L 111.1875 0 L 111.1875 -2.234375 C 117.601562 -2.234375 122.265625 -4.171875 125.171875 -8.046875 C 128.078125 -11.929688 129.898438 -18.269531 130.640625 -27.0625 C 131.390625 -35.863281 131.765625 -47.570312 131.765625 -62.1875 C 131.765625 -63.53125 131.765625 -65.953125 131.765625 -69.453125 C 131.765625 -72.960938 131.765625 -76.914062 131.765625 -81.3125 C 131.765625 -85.71875 131.726562 -89.96875 131.65625 -94.0625 C 131.582031 -98.164062 131.546875 -101.5625 131.546875 -104.25 C 131.546875 -106.9375 131.546875 -108.28125 131.546875 -108.28125 C 131.546875 -118.269531 130.3125 -126.472656 127.84375 -132.890625 C 125.382812 -139.304688 122.179688 -144.335938 118.234375 -147.984375 C 114.285156 -151.640625 110.035156 -154.320312 105.484375 -156.03125 C 100.929688 -157.75 96.492188 -158.796875 92.171875 -159.171875 C 87.847656 -159.546875 84.191406 -159.734375 81.203125 -159.734375 C 75.535156 -159.734375 69.679688 -159.132812 63.640625 -157.9375 C 57.609375 -156.75 51.90625 -155.1875 46.53125 -153.25 L 46.53125 -62.1875 C 46.53125 -47.570312 46.898438 -35.863281 47.640625 -27.0625 C 48.390625 -18.269531 50.21875 -11.929688 53.125 -8.046875 C 56.039062 -4.171875 60.703125 -2.234375 67.109375 -2.234375 L 67.109375 0 L 6.71875 0 Z M 6.71875 -2.234375 "/></g></g></g><g fill="#000000" fill-opacity="1"><g transform="translate(410.232866, 227.682501)"><g><path d="M 13.421875 -45.1875 C 13.421875 -56.375 15.472656 -65.660156 19.578125 -73.046875 C 23.679688 -80.429688 29.085938 -86.429688 35.796875 -91.046875 C 42.503906 -95.671875 49.882812 -99.363281 57.9375 -102.125 C 66 -104.882812 74.054688 -107.195312 82.109375 -109.0625 C 90.160156 -110.925781 97.539062 -112.863281 104.25 -114.875 C 110.957031 -116.894531 116.363281 -119.46875 120.46875 -122.59375 C 124.570312 -125.726562 126.625 -129.90625 126.625 -135.125 C 126.625 -141.238281 124.609375 -146.160156 120.578125 -149.890625 C 116.554688 -153.617188 111.5625 -156.335938 105.59375 -158.046875 C 99.625 -159.765625 93.582031 -160.625 87.46875 -160.625 C 80.457031 -160.625 73.742188 -159.765625 67.328125 -158.046875 C 60.921875 -156.335938 55.703125 -153.582031 51.671875 -149.78125 C 47.648438 -145.976562 45.640625 -140.941406 45.640625 -134.671875 C 45.640625 -130.503906 46.867188 -127.488281 49.328125 -125.625 C 51.785156 -123.757812 53.539062 -123.347656 54.59375 -124.390625 C 55.78125 -121.109375 54.921875 -118.125 52.015625 -115.4375 C 49.109375 -112.75 45.789062 -111.40625 42.0625 -111.40625 C 37.289062 -111.40625 33.410156 -113.195312 30.421875 -116.78125 C 27.441406 -120.363281 25.953125 -124.539062 25.953125 -129.3125 C 25.953125 -136.769531 28.632812 -142.957031 34 -147.875 C 39.375 -152.800781 46.722656 -156.53125 56.046875 -159.0625 C 65.367188 -161.59375 75.84375 -162.859375 87.46875 -162.859375 C 93.738281 -162.859375 100.265625 -162.222656 107.046875 -160.953125 C 113.835938 -159.691406 120.140625 -157.832031 125.953125 -155.375 C 131.765625 -152.914062 136.5 -149.96875 140.15625 -146.53125 C 143.8125 -143.101562 145.640625 -139.148438 145.640625 -134.671875 C 145.640625 -130.203125 144.070312 -126.625 140.9375 -123.9375 C 137.8125 -121.25 133.5625 -119.125 128.1875 -117.5625 C 122.820312 -116 116.78125 -114.546875 110.0625 -113.203125 C 103.351562 -111.859375 96.457031 -110.328125 89.375 -108.609375 C 82.289062 -106.898438 75.390625 -104.550781 68.671875 -101.5625 C 61.960938 -98.582031 55.921875 -94.707031 50.546875 -89.9375 C 45.179688 -85.164062 40.929688 -79.015625 37.796875 -71.484375 C 34.671875 -63.953125 33.109375 -54.738281 33.109375 -43.84375 C 33.109375 -36.09375 34.632812 -29.117188 37.6875 -22.921875 C 40.75 -16.734375 45.039062 -11.847656 50.5625 -8.265625 C 56.082031 -4.691406 62.492188 -2.90625 69.796875 -2.90625 C 75.910156 -2.90625 82.132812 -4.546875 88.46875 -7.828125 C 94.8125 -11.109375 100.742188 -16.328125 106.265625 -23.484375 C 111.785156 -30.648438 116.222656 -39.9375 119.578125 -51.34375 C 122.929688 -62.75 124.609375 -76.582031 124.609375 -92.84375 C 124.609375 -95.375 124.382812 -97.722656 123.9375 -99.890625 C 123.488281 -102.054688 122.445312 -103.363281 120.8125 -103.8125 C 120.8125 -104.550781 121.367188 -105.253906 122.484375 -105.921875 C 123.597656 -106.597656 125.050781 -106.9375 126.84375 -106.9375 C 132.363281 -106.9375 136.390625 -105.257812 138.921875 -101.90625 C 141.460938 -98.550781 143.140625 -94.222656 143.953125 -88.921875 C 144.773438 -83.628906 145.1875 -78 145.1875 -72.03125 C 145.1875 -67.113281 145.1875 -62.976562 145.1875 -59.625 C 145.1875 -56.269531 145.222656 -53.0625 145.296875 -50 C 145.378906 -46.945312 145.421875 -43.515625 145.421875 -39.703125 C 145.421875 -35.898438 145.421875 -31.019531 145.421875 -25.0625 C 145.421875 -18.789062 146.425781 -14.015625 148.4375 -10.734375 C 150.445312 -7.453125 152.796875 -5.210938 155.484375 -4.015625 C 158.171875 -2.828125 160.484375 -2.234375 162.421875 -2.234375 L 162.421875 0 L 146.53125 0 C 140.570312 0 135.539062 -2.535156 131.4375 -7.609375 C 127.332031 -12.679688 125.28125 -19.390625 125.28125 -27.734375 L 125.28125 -66 C 123.34375 -56.445312 120.804688 -47.421875 117.671875 -38.921875 C 114.546875 -30.421875 110.632812 -22.890625 105.9375 -16.328125 C 101.238281 -9.765625 95.421875 -4.65625 88.484375 -1 C 81.546875 2.644531 73.15625 4.46875 63.3125 4.46875 C 53.769531 4.46875 45.234375 2.34375 37.703125 -1.90625 C 30.171875 -6.15625 24.238281 -12.046875 19.90625 -19.578125 C 15.582031 -27.109375 13.421875 -35.644531 13.421875 -45.1875 Z M 13.421875 -45.1875 "/></g></g></g></g></g><g transform="matrix(1, 0, 0, 1, 650, 278)"><g clip-path="url(#b384e25a40)"><g fill="#000000" fill-opacity="1"><g transform="translate(0.967743, 37.797035)"><g><path d="M 12.546875 16.25 C 10.285156 16.25 8.265625 15.9375 6.484375 15.3125 C 4.703125 14.695312 3.300781 13.765625 2.28125 12.515625 C 1.257812 11.265625 0.75 9.722656 0.75 7.890625 C 0.75 6.785156 1.023438 5.820312 1.578125 5 C 2.140625 4.175781 2.863281 3.535156 3.75 3.078125 C 4.632812 2.617188 5.5625 2.390625 6.53125 2.390625 C 7.40625 2.390625 8.164062 2.46875 8.8125 2.625 C 9.457031 2.789062 10.070312 2.984375 10.65625 3.203125 C 11.25 3.429688 11.875 3.625 12.53125 3.78125 C 13.195312 3.945312 13.960938 4.03125 14.828125 4.03125 C 15.128906 4.03125 15.476562 3.96875 15.875 3.84375 C 16.269531 3.71875 16.597656 3.519531 16.859375 3.25 C 17.128906 2.976562 17.203125 2.617188 17.078125 2.171875 L 17.21875 2.125 C 17.695312 2.726562 17.878906 3.421875 17.765625 4.203125 C 17.648438 4.984375 17.273438 5.664062 16.640625 6.25 C 16.003906 6.84375 15.148438 7.140625 14.078125 7.140625 C 13.160156 7.140625 12.335938 7 11.609375 6.71875 C 10.890625 6.445312 10.140625 6.171875 9.359375 5.890625 C 8.578125 5.617188 7.613281 5.484375 6.46875 5.484375 C 5.914062 5.484375 5.363281 5.613281 4.8125 5.875 C 4.269531 6.144531 3.820312 6.507812 3.46875 6.96875 C 3.125 7.425781 2.953125 7.96875 2.953125 8.59375 C 2.953125 10.039062 3.367188 11.3125 4.203125 12.40625 C 5.035156 13.5 6.179688 14.347656 7.640625 14.953125 C 9.097656 15.566406 10.757812 15.875 12.625 15.875 C 14.070312 15.875 15.453125 15.597656 16.765625 15.046875 C 18.085938 14.503906 19.265625 13.738281 20.296875 12.75 C 21.335938 11.769531 22.160156 10.609375 22.765625 9.265625 C 23.378906 7.921875 23.6875 6.453125 23.6875 4.859375 C 23.6875 3.554688 23.335938 2.398438 22.640625 1.390625 C 21.941406 0.390625 20.96875 -0.398438 19.71875 -0.984375 C 18.476562 -1.578125 17.023438 -1.875 15.359375 -1.875 C 14.335938 -1.875 13.507812 -1.816406 12.875 -1.703125 C 12.238281 -1.585938 11.617188 -1.472656 11.015625 -1.359375 C 10.421875 -1.253906 9.640625 -1.203125 8.671875 -1.203125 C 7.921875 -1.203125 7.207031 -1.375 6.53125 -1.71875 C 5.863281 -2.0625 5.53125 -2.609375 5.53125 -3.359375 C 5.53125 -4.128906 5.816406 -4.734375 6.390625 -5.171875 C 6.960938 -5.609375 7.722656 -5.953125 8.671875 -6.203125 C 9.617188 -6.453125 10.648438 -6.703125 11.765625 -6.953125 C 12.890625 -7.203125 14.007812 -7.523438 15.125 -7.921875 C 16.25 -8.316406 17.285156 -8.867188 18.234375 -9.578125 C 19.179688 -10.285156 19.941406 -11.238281 20.515625 -12.4375 C 21.085938 -13.632812 21.375 -15.15625 21.375 -17 C 21.375 -18.6875 21.054688 -20.269531 20.421875 -21.75 C 19.785156 -23.238281 18.863281 -24.441406 17.65625 -25.359375 C 16.445312 -26.285156 14.992188 -26.75 13.296875 -26.75 C 11.609375 -26.75 10.160156 -26.273438 8.953125 -25.328125 C 7.742188 -24.378906 6.8125 -23.15625 6.15625 -21.65625 C 5.507812 -20.164062 5.1875 -18.578125 5.1875 -16.890625 C 5.1875 -15.191406 5.535156 -13.707031 6.234375 -12.4375 C 6.929688 -11.164062 7.867188 -10.175781 9.046875 -9.46875 C 10.234375 -8.757812 11.523438 -8.40625 12.921875 -8.40625 L 12.921875 -8.0625 C 12.597656 -8.019531 12.28125 -7.984375 11.96875 -7.953125 C 11.65625 -7.929688 11.351562 -7.921875 11.0625 -7.921875 C 9.238281 -7.921875 7.648438 -8.335938 6.296875 -9.171875 C 4.941406 -10.003906 3.882812 -11.097656 3.125 -12.453125 C 2.363281 -13.816406 1.984375 -15.296875 1.984375 -16.890625 C 1.984375 -18.203125 2.238281 -19.472656 2.75 -20.703125 C 3.257812 -21.941406 4 -23.046875 4.96875 -24.015625 C 5.9375 -24.992188 7.125 -25.769531 8.53125 -26.34375 C 9.9375 -26.914062 11.523438 -27.203125 13.296875 -27.203125 L 24.578125 -27.203125 L 24.578125 -26 L 16.515625 -26.828125 C 18.234375 -26.398438 19.6875 -25.679688 20.875 -24.671875 C 22.070312 -23.660156 22.988281 -22.484375 23.625 -21.140625 C 24.257812 -19.796875 24.578125 -18.378906 24.578125 -16.890625 C 24.578125 -14.941406 24.238281 -13.335938 23.5625 -12.078125 C 22.894531 -10.828125 22.003906 -9.820312 20.890625 -9.0625 C 19.785156 -8.300781 18.570312 -7.71875 17.25 -7.3125 C 15.9375 -6.914062 14.613281 -6.601562 13.28125 -6.375 C 11.945312 -6.15625 10.722656 -5.945312 9.609375 -5.75 C 8.503906 -5.550781 7.613281 -5.285156 6.9375 -4.953125 C 6.269531 -4.617188 5.9375 -4.113281 5.9375 -3.4375 C 5.9375 -2.8125 6.234375 -2.34375 6.828125 -2.03125 C 7.429688 -1.71875 8.046875 -1.5625 8.671875 -1.5625 C 9.859375 -1.5625 10.953125 -1.710938 11.953125 -2.015625 C 12.953125 -2.316406 13.945312 -2.613281 14.9375 -2.90625 C 15.9375 -3.207031 17.019531 -3.359375 18.1875 -3.359375 C 19.65625 -3.359375 21.019531 -3.007812 22.28125 -2.3125 C 23.539062 -1.613281 24.554688 -0.671875 25.328125 0.515625 C 26.097656 1.710938 26.484375 3.0625 26.484375 4.5625 C 26.484375 6.726562 25.921875 8.691406 24.796875 10.453125 C 23.679688 12.222656 22.082031 13.628906 20 14.671875 C 17.925781 15.722656 15.441406 16.25 12.546875 16.25 Z M 12.546875 16.25 "/></g></g></g><g fill="#000000" fill-opacity="1"><g transform="translate(28.839508, 37.797035)"><g><path d="M 0.75 -26.078125 L 0.75 -26.453125 L 7.390625 -26.453125 C 7.390625 -26.296875 7.390625 -25.847656 7.390625 -25.109375 C 7.390625 -24.378906 7.390625 -23.472656 7.390625 -22.390625 C 7.390625 -21.304688 7.394531 -20.132812 7.40625 -18.875 C 7.425781 -17.625 7.4375 -16.375 7.4375 -15.125 C 7.4375 -13.882812 7.4375 -12.753906 7.4375 -11.734375 C 7.4375 -10.710938 7.4375 -9.894531 7.4375 -9.28125 C 7.4375 -8.675781 7.4375 -8.375 7.4375 -8.375 C 7.4375 -6.695312 7.640625 -5.320312 8.046875 -4.25 C 8.460938 -3.1875 9 -2.347656 9.65625 -1.734375 C 10.3125 -1.128906 11.019531 -0.679688 11.78125 -0.390625 C 12.539062 -0.109375 13.28125 0.0625 14 0.125 C 14.726562 0.1875 15.34375 0.21875 15.84375 0.21875 C 16.789062 0.21875 17.765625 0.117188 18.765625 -0.078125 C 19.773438 -0.273438 20.726562 -0.535156 21.625 -0.859375 L 21.625 -16.0625 C 21.625 -18.53125 21.5625 -20.492188 21.4375 -21.953125 C 21.3125 -23.410156 21.003906 -24.460938 20.515625 -25.109375 C 20.035156 -25.753906 19.257812 -26.078125 18.1875 -26.078125 L 18.1875 -26.453125 L 24.84375 -26.453125 L 24.84375 -10.390625 C 24.84375 -7.941406 24.90625 -5.984375 25.03125 -4.515625 C 25.15625 -3.046875 25.457031 -1.988281 25.9375 -1.34375 C 26.425781 -0.695312 27.207031 -0.375 28.28125 -0.375 L 28.28125 0 L 24.015625 0 C 22.992188 0 21.851562 0.0625 20.59375 0.1875 C 19.34375 0.3125 18.140625 0.4375 16.984375 0.5625 C 15.828125 0.6875 14.882812 0.75 14.15625 0.75 C 13.488281 0.75 12.722656 0.703125 11.859375 0.609375 C 11.003906 0.523438 10.128906 0.335938 9.234375 0.046875 C 8.335938 -0.234375 7.507812 -0.671875 6.75 -1.265625 C 5.988281 -1.867188 5.367188 -2.679688 4.890625 -3.703125 C 4.421875 -4.722656 4.1875 -6.015625 4.1875 -7.578125 L 4.1875 -16.0625 C 4.1875 -18.53125 4.125 -20.492188 4 -21.953125 C 3.875 -23.410156 3.566406 -24.460938 3.078125 -25.109375 C 2.597656 -25.753906 1.820312 -26.078125 0.75 -26.078125 Z M 0.75 -26.078125 "/></g></g></g><g fill="#000000" fill-opacity="1"><g transform="translate(58.504649, 37.797035)"><g><path d="M 11.203125 0 L 1.125 0 L 1.125 -0.375 C 2.195312 -0.375 2.972656 -0.695312 3.453125 -1.34375 C 3.941406 -1.988281 4.25 -3.046875 4.375 -4.515625 C 4.5 -5.984375 4.5625 -7.941406 4.5625 -10.390625 L 4.5625 -16.0625 C 4.5625 -18.53125 4.5 -20.492188 4.375 -21.953125 C 4.25 -23.410156 3.941406 -24.460938 3.453125 -25.109375 C 2.972656 -25.753906 2.195312 -26.078125 1.125 -26.078125 L 1.125 -26.453125 L 5.453125 -26.453125 C 7.597656 -26.453125 9.828125 -26.578125 12.140625 -26.828125 C 14.453125 -27.078125 16.644531 -27.203125 18.71875 -27.203125 C 20.382812 -27.203125 21.765625 -26.800781 22.859375 -26 C 23.960938 -25.207031 24.515625 -24.085938 24.515625 -22.640625 C 24.515625 -21.640625 24.242188 -20.785156 23.703125 -20.078125 C 23.171875 -19.367188 22.367188 -19.015625 21.296875 -19.015625 C 20.773438 -19.015625 20.300781 -19.171875 19.875 -19.484375 C 19.445312 -19.796875 19.234375 -20.210938 19.234375 -20.734375 C 19.765625 -20.753906 20.234375 -21.03125 20.640625 -21.5625 C 21.046875 -22.101562 21.25 -22.757812 21.25 -23.53125 C 21.25 -24.40625 20.921875 -25.144531 20.265625 -25.75 C 19.609375 -26.363281 18.609375 -26.671875 17.265625 -26.671875 C 16.691406 -26.671875 15.972656 -26.644531 15.109375 -26.59375 C 14.253906 -26.550781 13.363281 -26.476562 12.4375 -26.375 C 11.519531 -26.269531 10.644531 -26.15625 9.8125 -26.03125 C 8.976562 -25.914062 8.296875 -25.769531 7.765625 -25.59375 L 7.765625 -10.390625 C 7.765625 -7.941406 7.828125 -5.984375 7.953125 -4.515625 C 8.078125 -3.046875 8.378906 -1.988281 8.859375 -1.34375 C 9.347656 -0.695312 10.128906 -0.375 11.203125 -0.375 Z M 11.203125 0 "/></g></g></g><g fill="#000000" fill-opacity="1"><g transform="translate(84.396258, 37.797035)"><g><path d="M 11.203125 0 L 1.125 0 L 1.125 -0.375 C 2.195312 -0.375 2.972656 -0.695312 3.453125 -1.34375 C 3.941406 -1.988281 4.25 -3.046875 4.375 -4.515625 C 4.5 -5.984375 4.5625 -7.941406 4.5625 -10.390625 L 4.5625 -16.0625 C 4.5625 -18.53125 4.5 -20.492188 4.375 -21.953125 C 4.25 -23.410156 3.941406 -24.460938 3.453125 -25.109375 C 2.972656 -25.753906 2.195312 -26.078125 1.125 -26.078125 L 1.125 -26.453125 L 5.375 -26.453125 C 6.394531 -26.453125 7.535156 -26.515625 8.796875 -26.640625 C 10.054688 -26.765625 11.269531 -26.890625 12.4375 -27.015625 C 13.613281 -27.140625 14.550781 -27.203125 15.25 -27.203125 C 16.144531 -27.203125 17.21875 -27.117188 18.46875 -26.953125 C 19.726562 -26.796875 20.894531 -26.367188 21.96875 -25.671875 C 22.363281 -25.671875 23.023438 -25.800781 23.953125 -26.0625 C 24.890625 -26.320312 26.085938 -26.578125 27.546875 -26.828125 C 29.003906 -27.078125 30.707031 -27.203125 32.65625 -27.203125 C 33.320312 -27.203125 34.082031 -27.15625 34.9375 -27.0625 C 35.800781 -26.976562 36.679688 -26.789062 37.578125 -26.5 C 38.472656 -26.21875 39.300781 -25.773438 40.0625 -25.171875 C 40.820312 -24.578125 41.4375 -23.769531 41.90625 -22.75 C 42.382812 -21.726562 42.625 -20.429688 42.625 -18.859375 L 42.625 -10.390625 C 42.625 -7.941406 42.6875 -5.984375 42.8125 -4.515625 C 42.9375 -3.046875 43.238281 -1.988281 43.71875 -1.34375 C 44.207031 -0.695312 44.988281 -0.375 46.0625 -0.375 L 46.0625 0 L 35.984375 0 L 35.984375 -0.375 C 37.046875 -0.375 37.820312 -0.695312 38.3125 -1.34375 C 38.800781 -1.988281 39.109375 -3.046875 39.234375 -4.515625 C 39.359375 -5.984375 39.421875 -7.941406 39.421875 -10.390625 C 39.421875 -10.609375 39.421875 -11.007812 39.421875 -11.59375 C 39.421875 -12.1875 39.421875 -12.847656 39.421875 -13.578125 C 39.421875 -14.316406 39.410156 -15.023438 39.390625 -15.703125 C 39.378906 -16.390625 39.375 -16.957031 39.375 -17.40625 C 39.375 -17.851562 39.375 -18.078125 39.375 -18.078125 C 39.375 -19.742188 39.164062 -21.117188 38.75 -22.203125 C 38.34375 -23.285156 37.804688 -24.132812 37.140625 -24.75 C 36.484375 -25.363281 35.773438 -25.804688 35.015625 -26.078125 C 34.265625 -26.347656 33.523438 -26.519531 32.796875 -26.59375 C 32.078125 -26.675781 31.46875 -26.71875 30.96875 -26.71875 C 29.601562 -26.71875 28.253906 -26.5625 26.921875 -26.25 C 25.585938 -25.9375 24.332031 -25.429688 23.15625 -24.734375 C 23.78125 -24.109375 24.28125 -23.320312 24.65625 -22.375 C 25.03125 -21.425781 25.21875 -20.253906 25.21875 -18.859375 L 25.21875 -10.390625 C 25.21875 -7.941406 25.28125 -5.984375 25.40625 -4.515625 C 25.53125 -3.046875 25.832031 -1.988281 26.3125 -1.34375 C 26.800781 -0.695312 27.582031 -0.375 28.65625 -0.375 L 28.65625 0 L 18.5625 0 L 18.5625 -0.375 C 19.632812 -0.375 20.410156 -0.695312 20.890625 -1.34375 C 21.378906 -1.988281 21.6875 -3.046875 21.8125 -4.515625 C 21.9375 -5.984375 22 -7.941406 22 -10.390625 C 22 -10.609375 22 -11.007812 22 -11.59375 C 22 -12.1875 22 -12.847656 22 -13.578125 C 22 -14.316406 21.992188 -15.023438 21.984375 -15.703125 C 21.972656 -16.390625 21.96875 -16.957031 21.96875 -17.40625 C 21.96875 -17.851562 21.96875 -18.078125 21.96875 -18.078125 C 21.96875 -19.742188 21.757812 -21.113281 21.34375 -22.1875 C 20.9375 -23.257812 20.398438 -24.097656 19.734375 -24.703125 C 19.078125 -25.316406 18.367188 -25.765625 17.609375 -26.046875 C 16.847656 -26.335938 16.109375 -26.515625 15.390625 -26.578125 C 14.671875 -26.640625 14.0625 -26.671875 13.5625 -26.671875 C 12.613281 -26.671875 11.632812 -26.570312 10.625 -26.375 C 9.613281 -26.175781 8.660156 -25.914062 7.765625 -25.59375 L 7.765625 -10.390625 C 7.765625 -7.941406 7.828125 -5.984375 7.953125 -4.515625 C 8.078125 -3.046875 8.378906 -1.988281 8.859375 -1.34375 C 9.347656 -0.695312 10.128906 -0.375 11.203125 -0.375 Z M 11.203125 0 "/></g></g></g><g fill="#000000" fill-opacity="1"><g transform="translate(131.845542, 37.797035)"><g><path d="M 15.0625 0.75 C 13.039062 0.75 11.238281 0.390625 9.65625 -0.328125 C 8.070312 -1.054688 6.734375 -2.0625 5.640625 -3.34375 C 4.546875 -4.625 3.703125 -6.109375 3.109375 -7.796875 C 2.523438 -9.492188 2.234375 -11.300781 2.234375 -13.21875 C 2.234375 -15.144531 2.523438 -16.953125 3.109375 -18.640625 C 3.703125 -20.335938 4.546875 -21.828125 5.640625 -23.109375 C 6.734375 -24.390625 8.070312 -25.390625 9.65625 -26.109375 C 11.238281 -26.835938 13.039062 -27.203125 15.0625 -27.203125 C 17.070312 -27.203125 18.800781 -26.9375 20.25 -26.40625 C 21.695312 -25.882812 22.878906 -25.203125 23.796875 -24.359375 C 24.722656 -23.515625 25.398438 -22.59375 25.828125 -21.59375 C 26.265625 -20.59375 26.484375 -19.625 26.484375 -18.6875 C 26.460938 -16.5625 25.863281 -14.898438 24.6875 -13.703125 C 23.519531 -12.515625 21.863281 -11.921875 19.71875 -11.921875 C 18.226562 -11.921875 16.953125 -12.085938 15.890625 -12.421875 C 14.835938 -12.753906 13.90625 -13.140625 13.09375 -13.578125 C 12.28125 -14.015625 11.492188 -14.398438 10.734375 -14.734375 C 9.972656 -15.078125 9.132812 -15.25 8.21875 -15.25 C 7.769531 -15.25 7.363281 -15.128906 7 -14.890625 C 6.644531 -14.648438 6.441406 -14.457031 6.390625 -14.3125 L 6.234375 -14.34375 C 6.234375 -15.113281 6.5625 -15.800781 7.21875 -16.40625 C 7.882812 -17.019531 8.863281 -17.328125 10.15625 -17.328125 C 11.132812 -17.328125 12.054688 -17.078125 12.921875 -16.578125 C 13.796875 -16.085938 14.628906 -15.507812 15.421875 -14.84375 C 16.222656 -14.1875 16.992188 -13.609375 17.734375 -13.109375 C 18.484375 -12.609375 19.234375 -12.359375 19.984375 -12.359375 C 20.910156 -12.359375 21.671875 -12.707031 22.265625 -13.40625 C 22.859375 -14.101562 23.273438 -14.992188 23.515625 -16.078125 C 23.753906 -17.160156 23.773438 -18.316406 23.578125 -19.546875 C 23.378906 -20.785156 22.941406 -21.945312 22.265625 -23.03125 C 21.585938 -24.113281 20.648438 -25.003906 19.453125 -25.703125 C 18.265625 -26.398438 16.773438 -26.75 14.984375 -26.75 C 13.460938 -26.75 12.15625 -26.457031 11.0625 -25.875 C 9.96875 -25.289062 9.054688 -24.507812 8.328125 -23.53125 C 7.609375 -22.5625 7.03125 -21.488281 6.59375 -20.3125 C 6.15625 -19.144531 5.847656 -17.953125 5.671875 -16.734375 C 5.503906 -15.515625 5.429688 -14.382812 5.453125 -13.34375 C 5.472656 -11.59375 5.734375 -9.945312 6.234375 -8.40625 C 6.734375 -6.863281 7.445312 -5.5 8.375 -4.3125 C 9.3125 -3.132812 10.453125 -2.207031 11.796875 -1.53125 C 13.148438 -0.851562 14.6875 -0.515625 16.40625 -0.515625 C 17.144531 -0.515625 17.972656 -0.628906 18.890625 -0.859375 C 19.816406 -1.085938 20.75 -1.445312 21.6875 -1.9375 C 22.625 -2.4375 23.484375 -3.097656 24.265625 -3.921875 C 25.046875 -4.742188 25.660156 -5.753906 26.109375 -6.953125 L 26.640625 -6.71875 C 25.671875 -4.507812 24.191406 -2.710938 22.203125 -1.328125 C 20.222656 0.0546875 17.84375 0.75 15.0625 0.75 Z M 15.0625 0.75 "/></g></g></g></g></g></svg>