<svg xmlns="http://www.w3.org/2000/svg" xmlns:xlink="http://www.w3.org/1999/xlink" width="1400" zoomAndPan="magnify" viewBox="0 0 1050 374.999991" height="500" preserveAspectRatio="xMidYMid meet" version="1.0"><defs><g/><clipPath id="f7b76614f6"><rect x="0" width="451" y="0" height="223"/></clipPath><clipPath id="d267ca4f32"><path d="M 1 9 L 22 9 L 22 43.878906 L 1 43.878906 Z M 1 9 " clip-rule="nonzero"/></clipPath><clipPath id="f66f2bdea8"><rect x="0" width="128" y="0" height="44"/></clipPath></defs><g transform="matrix(1, 0, 0, 1, 299, 72)"><g clip-path="url(#f7b76614f6)"><g fill="#9f7940" fill-opacity="0.4"><g transform="translate(2.240096, 179.864717)"><g><path d="M 70.5 3.5 C 61.050781 3.5 52.625 1.8125 45.21875 -1.5625 C 37.8125 -4.945312 31.539062 -9.644531 26.40625 -15.65625 C 21.28125 -21.664062 17.347656 -28.632812 14.609375 -36.5625 C 11.867188 -44.488281 10.5 -52.941406 10.5 -61.921875 C 10.5 -70.898438 11.867188 -79.351562 14.609375 -87.28125 C 17.347656 -95.21875 21.28125 -102.1875 26.40625 -108.1875 C 31.539062 -114.195312 37.8125 -118.894531 45.21875 -122.28125 C 52.625 -125.664062 61.050781 -127.359375 70.5 -127.359375 C 79.945312 -127.359375 88.050781 -126.128906 94.8125 -123.671875 C 101.582031 -121.222656 107.125 -118.015625 111.4375 -114.046875 C 115.75 -110.085938 118.925781 -105.773438 120.96875 -101.109375 C 123.007812 -96.441406 124.03125 -91.894531 124.03125 -87.46875 C 123.914062 -77.550781 121.113281 -69.796875 115.625 -64.203125 C 110.144531 -58.609375 102.390625 -55.8125 92.359375 -55.8125 C 85.367188 -55.8125 79.394531 -56.597656 74.4375 -58.171875 C 69.476562 -59.742188 65.101562 -61.550781 61.3125 -63.59375 C 57.519531 -65.632812 53.84375 -67.441406 50.28125 -69.015625 C 46.726562 -70.585938 42.796875 -71.375 38.484375 -71.375 C 36.390625 -71.375 34.492188 -70.816406 32.796875 -69.703125 C 31.109375 -68.597656 30.148438 -67.695312 29.921875 -67 L 29.21875 -67.171875 C 29.21875 -70.785156 30.757812 -74.019531 33.84375 -76.875 C 36.9375 -79.738281 41.515625 -81.171875 47.578125 -81.171875 C 52.128906 -81.171875 56.445312 -80.003906 60.53125 -77.671875 C 64.613281 -75.335938 68.519531 -72.625 72.25 -69.53125 C 75.976562 -66.445312 79.59375 -63.738281 83.09375 -61.40625 C 86.59375 -59.070312 90.09375 -57.90625 93.59375 -57.90625 C 97.90625 -57.90625 101.460938 -59.535156 104.265625 -62.796875 C 107.066406 -66.066406 109.019531 -70.238281 110.125 -75.3125 C 111.226562 -80.382812 111.3125 -85.804688 110.375 -91.578125 C 109.445312 -97.347656 107.410156 -102.769531 104.265625 -107.84375 C 101.117188 -112.914062 96.742188 -117.082031 91.140625 -120.34375 C 85.546875 -123.613281 78.550781 -125.25 70.15625 -125.25 C 63.039062 -125.25 56.914062 -123.878906 51.78125 -121.140625 C 46.644531 -118.398438 42.382812 -114.753906 39 -110.203125 C 35.625 -105.660156 32.914062 -100.644531 30.875 -95.15625 C 28.832031 -89.675781 27.398438 -84.078125 26.578125 -78.359375 C 25.765625 -72.648438 25.421875 -67.347656 25.546875 -62.453125 C 25.660156 -54.285156 26.882812 -46.585938 29.21875 -39.359375 C 31.550781 -32.128906 34.898438 -25.742188 39.265625 -20.203125 C 43.640625 -14.660156 48.976562 -10.316406 55.28125 -7.171875 C 61.582031 -4.023438 68.753906 -2.453125 76.796875 -2.453125 C 80.296875 -2.453125 84.203125 -2.972656 88.515625 -4.015625 C 92.828125 -5.066406 97.171875 -6.757812 101.546875 -9.09375 C 105.921875 -11.425781 109.941406 -14.515625 113.609375 -18.359375 C 117.285156 -22.210938 120.175781 -26.9375 122.28125 -32.53125 L 124.734375 -31.484375 C 120.179688 -21.109375 113.269531 -12.679688 104 -6.203125 C 94.726562 0.265625 83.5625 3.5 70.5 3.5 Z M 70.5 3.5 "/></g></g></g><g fill="#9f7940" fill-opacity="0.4"><g transform="translate(134.652272, 179.864717)"><g><path d="M 3.5 -123.859375 C 9.332031 -123.859375 14.113281 -124.90625 17.84375 -127 C 21.570312 -129.101562 24.457031 -131.84375 26.5 -135.21875 C 28.539062 -138.601562 30.023438 -142.25 30.953125 -146.15625 C 31.890625 -150.0625 32.445312 -153.789062 32.625 -157.34375 C 32.800781 -160.90625 32.890625 -163.851562 32.890625 -166.1875 L 34.640625 -166.1875 L 34.640625 -123.859375 L 47.9375 -123.859375 L 47.9375 -122.109375 L 34.640625 -122.109375 L 34.640625 -38.140625 C 34.640625 -29.035156 34.640625 -21.800781 34.640625 -16.4375 C 34.640625 -11.070312 35.015625 -7.222656 35.765625 -4.890625 C 36.523438 -2.566406 38.015625 -1.40625 40.234375 -1.40625 C 42.097656 -1.40625 43.785156 -2.070312 45.296875 -3.40625 C 46.816406 -4.75 48.039062 -6.117188 48.96875 -7.515625 C 49.90625 -8.921875 50.375 -9.625 50.375 -9.625 L 52.125 -8.75 C 49.914062 -5.019531 47.265625 -2.046875 44.171875 0.171875 C 41.078125 2.390625 37.316406 3.5 32.890625 3.5 C 27.867188 3.5 24.394531 1.664062 22.46875 -2 C 20.550781 -5.675781 19.59375 -10.375 19.59375 -16.09375 L 19.59375 -122.109375 L 3.5 -122.109375 Z M 3.5 -123.859375 "/></g></g></g><g fill="#9f7940" fill-opacity="0.4"><g transform="translate(187.477055, 179.864717)"><g><path d="M 5.25 -1.75 C 10.257812 -1.75 13.898438 -3.265625 16.171875 -6.296875 C 18.453125 -9.328125 19.882812 -14.28125 20.46875 -21.15625 C 21.050781 -28.039062 21.34375 -37.195312 21.34375 -48.625 L 21.34375 -75.21875 C 21.34375 -86.769531 21.050781 -95.957031 20.46875 -102.78125 C 19.882812 -109.601562 18.453125 -114.53125 16.171875 -117.5625 C 13.898438 -120.59375 10.257812 -122.109375 5.25 -122.109375 L 5.25 -123.859375 L 25.1875 -123.859375 C 29.96875 -123.859375 35.300781 -124.148438 41.1875 -124.734375 C 47.082031 -125.316406 52.769531 -125.898438 58.25 -126.484375 C 63.726562 -127.066406 68.101562 -127.359375 71.375 -127.359375 C 74.519531 -127.359375 78.101562 -127.148438 82.125 -126.734375 C 86.15625 -126.328125 90.269531 -125.453125 94.46875 -124.109375 C 98.664062 -122.773438 102.539062 -120.707031 106.09375 -117.90625 C 109.65625 -115.101562 112.539062 -111.3125 114.75 -106.53125 C 116.96875 -101.75 118.078125 -95.6875 118.078125 -88.34375 L 118.078125 -48.625 C 118.078125 -37.195312 118.367188 -28.039062 118.953125 -21.15625 C 119.535156 -14.28125 120.960938 -9.328125 123.234375 -6.296875 C 125.515625 -3.265625 129.160156 -1.75 134.171875 -1.75 L 134.171875 0 L 86.9375 0 L 86.9375 -1.75 C 91.957031 -1.75 95.601562 -3.265625 97.875 -6.296875 C 100.144531 -9.328125 101.570312 -14.28125 102.15625 -21.15625 C 102.738281 -28.039062 103.03125 -37.195312 103.03125 -48.625 C 103.03125 -49.675781 103.03125 -51.570312 103.03125 -54.3125 C 103.03125 -57.050781 103.03125 -60.140625 103.03125 -63.578125 C 103.03125 -67.023438 103 -70.351562 102.9375 -73.5625 C 102.882812 -76.769531 102.859375 -79.421875 102.859375 -81.515625 C 102.859375 -83.617188 102.859375 -84.671875 102.859375 -84.671875 C 102.859375 -92.484375 101.894531 -98.894531 99.96875 -103.90625 C 98.050781 -108.925781 95.546875 -112.863281 92.453125 -115.71875 C 89.359375 -118.570312 86.03125 -120.671875 82.46875 -122.015625 C 78.914062 -123.359375 75.445312 -124.175781 72.0625 -124.46875 C 68.6875 -124.757812 65.832031 -124.90625 63.5 -124.90625 C 59.070312 -124.90625 54.492188 -124.4375 49.765625 -123.5 C 45.046875 -122.570312 40.585938 -121.347656 36.390625 -119.828125 L 36.390625 -48.625 C 36.390625 -37.195312 36.679688 -28.039062 37.265625 -21.15625 C 37.847656 -14.28125 39.273438 -9.328125 41.546875 -6.296875 C 43.816406 -3.265625 47.460938 -1.75 52.484375 -1.75 L 52.484375 0 L 5.25 0 Z M 5.25 -1.75 "/></g></g></g><g fill="#9f7940" fill-opacity="0.4"><g transform="translate(322.338078, 179.864717)"><g><path d="M 10.5 -35.34375 C 10.5 -44.082031 12.101562 -51.335938 15.3125 -57.109375 C 18.519531 -62.890625 22.742188 -67.585938 27.984375 -71.203125 C 33.234375 -74.816406 39.003906 -77.703125 45.296875 -79.859375 C 51.597656 -82.015625 57.898438 -83.820312 64.203125 -85.28125 C 70.503906 -86.738281 76.273438 -88.253906 81.515625 -89.828125 C 86.765625 -91.398438 90.992188 -93.410156 94.203125 -95.859375 C 97.410156 -98.316406 99.015625 -101.582031 99.015625 -105.65625 C 99.015625 -110.4375 97.4375 -114.285156 94.28125 -117.203125 C 91.132812 -120.117188 87.226562 -122.25 82.5625 -123.59375 C 77.90625 -124.9375 73.1875 -125.609375 68.40625 -125.609375 C 62.914062 -125.609375 57.664062 -124.9375 52.65625 -123.59375 C 47.644531 -122.25 43.5625 -120.085938 40.40625 -117.109375 C 37.257812 -114.140625 35.6875 -110.207031 35.6875 -105.3125 C 35.6875 -102.050781 36.644531 -99.691406 38.5625 -98.234375 C 40.488281 -96.773438 41.863281 -96.453125 42.6875 -97.265625 C 43.613281 -94.703125 42.941406 -92.367188 40.671875 -90.265625 C 38.398438 -88.171875 35.804688 -87.125 32.890625 -87.125 C 29.160156 -87.125 26.128906 -88.519531 23.796875 -91.3125 C 21.460938 -94.113281 20.296875 -97.378906 20.296875 -101.109375 C 20.296875 -106.941406 22.394531 -111.78125 26.59375 -115.625 C 30.789062 -119.476562 36.53125 -122.394531 43.8125 -124.375 C 51.101562 -126.363281 59.300781 -127.359375 68.40625 -127.359375 C 73.300781 -127.359375 78.398438 -126.859375 83.703125 -125.859375 C 89.015625 -124.867188 93.941406 -123.410156 98.484375 -121.484375 C 103.035156 -119.566406 106.738281 -117.265625 109.59375 -114.578125 C 112.457031 -111.898438 113.890625 -108.8125 113.890625 -105.3125 C 113.890625 -101.8125 112.660156 -99.007812 110.203125 -96.90625 C 107.753906 -94.8125 104.429688 -93.148438 100.234375 -91.921875 C 96.035156 -90.703125 91.3125 -89.566406 86.0625 -88.515625 C 80.820312 -87.460938 75.429688 -86.265625 69.890625 -84.921875 C 64.347656 -83.585938 58.953125 -81.753906 53.703125 -79.421875 C 48.453125 -77.085938 43.726562 -74.054688 39.53125 -70.328125 C 35.332031 -66.597656 32.007812 -61.785156 29.5625 -55.890625 C 27.113281 -50.003906 25.890625 -42.800781 25.890625 -34.28125 C 25.890625 -28.21875 27.082031 -22.765625 29.46875 -17.921875 C 31.863281 -13.085938 35.21875 -9.269531 39.53125 -6.46875 C 43.851562 -3.675781 48.867188 -2.28125 54.578125 -2.28125 C 59.359375 -2.28125 64.226562 -3.5625 69.1875 -6.125 C 74.144531 -8.6875 78.78125 -12.765625 83.09375 -18.359375 C 87.40625 -23.960938 90.875 -31.222656 93.5 -40.140625 C 96.125 -49.066406 97.4375 -59.882812 97.4375 -72.59375 C 97.4375 -74.582031 97.257812 -76.421875 96.90625 -78.109375 C 96.5625 -79.796875 95.75 -80.816406 94.46875 -81.171875 C 94.46875 -81.753906 94.90625 -82.304688 95.78125 -82.828125 C 96.65625 -83.359375 97.789062 -83.625 99.1875 -83.625 C 103.5 -83.625 106.644531 -82.3125 108.625 -79.6875 C 110.613281 -77.0625 111.925781 -73.675781 112.5625 -69.53125 C 113.207031 -65.394531 113.53125 -60.992188 113.53125 -56.328125 C 113.53125 -52.484375 113.53125 -49.25 113.53125 -46.625 C 113.53125 -44 113.554688 -41.488281 113.609375 -39.09375 C 113.671875 -36.707031 113.703125 -34.023438 113.703125 -31.046875 C 113.703125 -28.078125 113.703125 -24.257812 113.703125 -19.59375 C 113.703125 -14.695312 114.488281 -10.960938 116.0625 -8.390625 C 117.644531 -5.828125 119.484375 -4.078125 121.578125 -3.140625 C 123.679688 -2.210938 125.488281 -1.75 127 -1.75 L 127 0 L 114.578125 0 C 109.921875 0 105.988281 -1.976562 102.78125 -5.9375 C 99.570312 -9.90625 97.96875 -15.15625 97.96875 -21.6875 L 97.96875 -51.609375 C 96.445312 -44.140625 94.460938 -37.082031 92.015625 -30.4375 C 89.566406 -23.789062 86.503906 -17.898438 82.828125 -12.765625 C 79.160156 -7.640625 74.613281 -3.644531 69.1875 -0.78125 C 63.757812 2.070312 57.195312 3.5 49.5 3.5 C 42.039062 3.5 35.363281 1.835938 29.46875 -1.484375 C 23.582031 -4.804688 18.945312 -9.410156 15.5625 -15.296875 C 12.1875 -21.191406 10.5 -27.875 10.5 -35.34375 Z M 10.5 -35.34375 "/></g></g></g><g fill="#000000" fill-opacity="1"><g transform="translate(0.693895, 178.318509)"><g><path d="M 70.5 3.5 C 61.050781 3.5 52.625 1.8125 45.21875 -1.5625 C 37.8125 -4.945312 31.539062 -9.644531 26.40625 -15.65625 C 21.28125 -21.664062 17.347656 -28.632812 14.609375 -36.5625 C 11.867188 -44.488281 10.5 -52.941406 10.5 -61.921875 C 10.5 -70.898438 11.867188 -79.351562 14.609375 -87.28125 C 17.347656 -95.21875 21.28125 -102.1875 26.40625 -108.1875 C 31.539062 -114.195312 37.8125 -118.894531 45.21875 -122.28125 C 52.625 -125.664062 61.050781 -127.359375 70.5 -127.359375 C 79.945312 -127.359375 88.050781 -126.128906 94.8125 -123.671875 C 101.582031 -121.222656 107.125 -118.015625 111.4375 -114.046875 C 115.75 -110.085938 118.925781 -105.773438 120.96875 -101.109375 C 123.007812 -96.441406 124.03125 -91.894531 124.03125 -87.46875 C 123.914062 -77.550781 121.113281 -69.796875 115.625 -64.203125 C 110.144531 -58.609375 102.390625 -55.8125 92.359375 -55.8125 C 85.367188 -55.8125 79.394531 -56.597656 74.4375 -58.171875 C 69.476562 -59.742188 65.101562 -61.550781 61.3125 -63.59375 C 57.519531 -65.632812 53.84375 -67.441406 50.28125 -69.015625 C 46.726562 -70.585938 42.796875 -71.375 38.484375 -71.375 C 36.390625 -71.375 34.492188 -70.816406 32.796875 -69.703125 C 31.109375 -68.597656 30.148438 -67.695312 29.921875 -67 L 29.21875 -67.171875 C 29.21875 -70.785156 30.757812 -74.019531 33.84375 -76.875 C 36.9375 -79.738281 41.515625 -81.171875 47.578125 -81.171875 C 52.128906 -81.171875 56.445312 -80.003906 60.53125 -77.671875 C 64.613281 -75.335938 68.519531 -72.625 72.25 -69.53125 C 75.976562 -66.445312 79.59375 -63.738281 83.09375 -61.40625 C 86.59375 -59.070312 90.09375 -57.90625 93.59375 -57.90625 C 97.90625 -57.90625 101.460938 -59.535156 104.265625 -62.796875 C 107.066406 -66.066406 109.019531 -70.238281 110.125 -75.3125 C 111.226562 -80.382812 111.3125 -85.804688 110.375 -91.578125 C 109.445312 -97.347656 107.410156 -102.769531 104.265625 -107.84375 C 101.117188 -112.914062 96.742188 -117.082031 91.140625 -120.34375 C 85.546875 -123.613281 78.550781 -125.25 70.15625 -125.25 C 63.039062 -125.25 56.914062 -123.878906 51.78125 -121.140625 C 46.644531 -118.398438 42.382812 -114.753906 39 -110.203125 C 35.625 -105.660156 32.914062 -100.644531 30.875 -95.15625 C 28.832031 -89.675781 27.398438 -84.078125 26.578125 -78.359375 C 25.765625 -72.648438 25.421875 -67.347656 25.546875 -62.453125 C 25.660156 -54.285156 26.882812 -46.585938 29.21875 -39.359375 C 31.550781 -32.128906 34.898438 -25.742188 39.265625 -20.203125 C 43.640625 -14.660156 48.976562 -10.316406 55.28125 -7.171875 C 61.582031 -4.023438 68.753906 -2.453125 76.796875 -2.453125 C 80.296875 -2.453125 84.203125 -2.972656 88.515625 -4.015625 C 92.828125 -5.066406 97.171875 -6.757812 101.546875 -9.09375 C 105.921875 -11.425781 109.941406 -14.515625 113.609375 -18.359375 C 117.285156 -22.210938 120.175781 -26.9375 122.28125 -32.53125 L 124.734375 -31.484375 C 120.179688 -21.109375 113.269531 -12.679688 104 -6.203125 C 94.726562 0.265625 83.5625 3.5 70.5 3.5 Z M 70.5 3.5 "/></g></g></g><g fill="#000000" fill-opacity="1"><g transform="translate(133.106071, 178.318509)"><g><path d="M 3.5 -123.859375 C 9.332031 -123.859375 14.113281 -124.90625 17.84375 -127 C 21.570312 -129.101562 24.457031 -131.84375 26.5 -135.21875 C 28.539062 -138.601562 30.023438 -142.25 30.953125 -146.15625 C 31.890625 -150.0625 32.445312 -153.789062 32.625 -157.34375 C 32.800781 -160.90625 32.890625 -163.851562 32.890625 -166.1875 L 34.640625 -166.1875 L 34.640625 -123.859375 L 47.9375 -123.859375 L 47.9375 -122.109375 L 34.640625 -122.109375 L 34.640625 -38.140625 C 34.640625 -29.035156 34.640625 -21.800781 34.640625 -16.4375 C 34.640625 -11.070312 35.015625 -7.222656 35.765625 -4.890625 C 36.523438 -2.566406 38.015625 -1.40625 40.234375 -1.40625 C 42.097656 -1.40625 43.785156 -2.070312 45.296875 -3.40625 C 46.816406 -4.75 48.039062 -6.117188 48.96875 -7.515625 C 49.90625 -8.921875 50.375 -9.625 50.375 -9.625 L 52.125 -8.75 C 49.914062 -5.019531 47.265625 -2.046875 44.171875 0.171875 C 41.078125 2.390625 37.316406 3.5 32.890625 3.5 C 27.867188 3.5 24.394531 1.664062 22.46875 -2 C 20.550781 -5.675781 19.59375 -10.375 19.59375 -16.09375 L 19.59375 -122.109375 L 3.5 -122.109375 Z M 3.5 -123.859375 "/></g></g></g><g fill="#000000" fill-opacity="1"><g transform="translate(185.930854, 178.318509)"><g><path d="M 5.25 -1.75 C 10.257812 -1.75 13.898438 -3.265625 16.171875 -6.296875 C 18.453125 -9.328125 19.882812 -14.28125 20.46875 -21.15625 C 21.050781 -28.039062 21.34375 -37.195312 21.34375 -48.625 L 21.34375 -75.21875 C 21.34375 -86.769531 21.050781 -95.957031 20.46875 -102.78125 C 19.882812 -109.601562 18.453125 -114.53125 16.171875 -117.5625 C 13.898438 -120.59375 10.257812 -122.109375 5.25 -122.109375 L 5.25 -123.859375 L 25.1875 -123.859375 C 29.96875 -123.859375 35.300781 -124.148438 41.1875 -124.734375 C 47.082031 -125.316406 52.769531 -125.898438 58.25 -126.484375 C 63.726562 -127.066406 68.101562 -127.359375 71.375 -127.359375 C 74.519531 -127.359375 78.101562 -127.148438 82.125 -126.734375 C 86.15625 -126.328125 90.269531 -125.453125 94.46875 -124.109375 C 98.664062 -122.773438 102.539062 -120.707031 106.09375 -117.90625 C 109.65625 -115.101562 112.539062 -111.3125 114.75 -106.53125 C 116.96875 -101.75 118.078125 -95.6875 118.078125 -88.34375 L 118.078125 -48.625 C 118.078125 -37.195312 118.367188 -28.039062 118.953125 -21.15625 C 119.535156 -14.28125 120.960938 -9.328125 123.234375 -6.296875 C 125.515625 -3.265625 129.160156 -1.75 134.171875 -1.75 L 134.171875 0 L 86.9375 0 L 86.9375 -1.75 C 91.957031 -1.75 95.601562 -3.265625 97.875 -6.296875 C 100.144531 -9.328125 101.570312 -14.28125 102.15625 -21.15625 C 102.738281 -28.039062 103.03125 -37.195312 103.03125 -48.625 C 103.03125 -49.675781 103.03125 -51.570312 103.03125 -54.3125 C 103.03125 -57.050781 103.03125 -60.140625 103.03125 -63.578125 C 103.03125 -67.023438 103 -70.351562 102.9375 -73.5625 C 102.882812 -76.769531 102.859375 -79.421875 102.859375 -81.515625 C 102.859375 -83.617188 102.859375 -84.671875 102.859375 -84.671875 C 102.859375 -92.484375 101.894531 -98.894531 99.96875 -103.90625 C 98.050781 -108.925781 95.546875 -112.863281 92.453125 -115.71875 C 89.359375 -118.570312 86.03125 -120.671875 82.46875 -122.015625 C 78.914062 -123.359375 75.445312 -124.175781 72.0625 -124.46875 C 68.6875 -124.757812 65.832031 -124.90625 63.5 -124.90625 C 59.070312 -124.90625 54.492188 -124.4375 49.765625 -123.5 C 45.046875 -122.570312 40.585938 -121.347656 36.390625 -119.828125 L 36.390625 -48.625 C 36.390625 -37.195312 36.679688 -28.039062 37.265625 -21.15625 C 37.847656 -14.28125 39.273438 -9.328125 41.546875 -6.296875 C 43.816406 -3.265625 47.460938 -1.75 52.484375 -1.75 L 52.484375 0 L 5.25 0 Z M 5.25 -1.75 "/></g></g></g><g fill="#000000" fill-opacity="1"><g transform="translate(320.791877, 178.318509)"><g><path d="M 10.5 -35.34375 C 10.5 -44.082031 12.101562 -51.335938 15.3125 -57.109375 C 18.519531 -62.890625 22.742188 -67.585938 27.984375 -71.203125 C 33.234375 -74.816406 39.003906 -77.703125 45.296875 -79.859375 C 51.597656 -82.015625 57.898438 -83.820312 64.203125 -85.28125 C 70.503906 -86.738281 76.273438 -88.253906 81.515625 -89.828125 C 86.765625 -91.398438 90.992188 -93.410156 94.203125 -95.859375 C 97.410156 -98.316406 99.015625 -101.582031 99.015625 -105.65625 C 99.015625 -110.4375 97.4375 -114.285156 94.28125 -117.203125 C 91.132812 -120.117188 87.226562 -122.25 82.5625 -123.59375 C 77.90625 -124.9375 73.1875 -125.609375 68.40625 -125.609375 C 62.914062 -125.609375 57.664062 -124.9375 52.65625 -123.59375 C 47.644531 -122.25 43.5625 -120.085938 40.40625 -117.109375 C 37.257812 -114.140625 35.6875 -110.207031 35.6875 -105.3125 C 35.6875 -102.050781 36.644531 -99.691406 38.5625 -98.234375 C 40.488281 -96.773438 41.863281 -96.453125 42.6875 -97.265625 C 43.613281 -94.703125 42.941406 -92.367188 40.671875 -90.265625 C 38.398438 -88.171875 35.804688 -87.125 32.890625 -87.125 C 29.160156 -87.125 26.128906 -88.519531 23.796875 -91.3125 C 21.460938 -94.113281 20.296875 -97.378906 20.296875 -101.109375 C 20.296875 -106.941406 22.394531 -111.78125 26.59375 -115.625 C 30.789062 -119.476562 36.53125 -122.394531 43.8125 -124.375 C 51.101562 -126.363281 59.300781 -127.359375 68.40625 -127.359375 C 73.300781 -127.359375 78.398438 -126.859375 83.703125 -125.859375 C 89.015625 -124.867188 93.941406 -123.410156 98.484375 -121.484375 C 103.035156 -119.566406 106.738281 -117.265625 109.59375 -114.578125 C 112.457031 -111.898438 113.890625 -108.8125 113.890625 -105.3125 C 113.890625 -101.8125 112.660156 -99.007812 110.203125 -96.90625 C 107.753906 -94.8125 104.429688 -93.148438 100.234375 -91.921875 C 96.035156 -90.703125 91.3125 -89.566406 86.0625 -88.515625 C 80.820312 -87.460938 75.429688 -86.265625 69.890625 -84.921875 C 64.347656 -83.585938 58.953125 -81.753906 53.703125 -79.421875 C 48.453125 -77.085938 43.726562 -74.054688 39.53125 -70.328125 C 35.332031 -66.597656 32.007812 -61.785156 29.5625 -55.890625 C 27.113281 -50.003906 25.890625 -42.800781 25.890625 -34.28125 C 25.890625 -28.21875 27.082031 -22.765625 29.46875 -17.921875 C 31.863281 -13.085938 35.21875 -9.269531 39.53125 -6.46875 C 43.851562 -3.675781 48.867188 -2.28125 54.578125 -2.28125 C 59.359375 -2.28125 64.226562 -3.5625 69.1875 -6.125 C 74.144531 -8.6875 78.78125 -12.765625 83.09375 -18.359375 C 87.40625 -23.960938 90.875 -31.222656 93.5 -40.140625 C 96.125 -49.066406 97.4375 -59.882812 97.4375 -72.59375 C 97.4375 -74.582031 97.257812 -76.421875 96.90625 -78.109375 C 96.5625 -79.796875 95.75 -80.816406 94.46875 -81.171875 C 94.46875 -81.753906 94.90625 -82.304688 95.78125 -82.828125 C 96.65625 -83.359375 97.789062 -83.625 99.1875 -83.625 C 103.5 -83.625 106.644531 -82.3125 108.625 -79.6875 C 110.613281 -77.0625 111.925781 -73.675781 112.5625 -69.53125 C 113.207031 -65.394531 113.53125 -60.992188 113.53125 -56.328125 C 113.53125 -52.484375 113.53125 -49.25 113.53125 -46.625 C 113.53125 -44 113.554688 -41.488281 113.609375 -39.09375 C 113.671875 -36.707031 113.703125 -34.023438 113.703125 -31.046875 C 113.703125 -28.078125 113.703125 -24.257812 113.703125 -19.59375 C 113.703125 -14.695312 114.488281 -10.960938 116.0625 -8.390625 C 117.644531 -5.828125 119.484375 -4.078125 121.578125 -3.140625 C 123.679688 -2.210938 125.488281 -1.75 127 -1.75 L 127 0 L 114.578125 0 C 109.921875 0 105.988281 -1.976562 102.78125 -5.9375 C 99.570312 -9.90625 97.96875 -15.15625 97.96875 -21.6875 L 97.96875 -51.609375 C 96.445312 -44.140625 94.460938 -37.082031 92.015625 -30.4375 C 89.566406 -23.789062 86.503906 -17.898438 82.828125 -12.765625 C 79.160156 -7.640625 74.613281 -3.644531 69.1875 -0.78125 C 63.757812 2.070312 57.195312 3.5 49.5 3.5 C 42.039062 3.5 35.363281 1.835938 29.46875 -1.484375 C 23.582031 -4.804688 18.945312 -9.410156 15.5625 -15.296875 C 12.1875 -21.191406 10.5 -27.875 10.5 -35.34375 Z M 10.5 -35.34375 "/></g></g></g></g></g><g transform="matrix(1, 0, 0, 1, 623, 259)"><g clip-path="url(#f66f2bdea8)"><g clip-path="url(#d267ca4f32)"><g fill="#000000" fill-opacity="1"><g transform="translate(0.494073, 30.330272)"><g><path d="M 9.8125 12.703125 C 8.039062 12.703125 6.457031 12.457031 5.0625 11.96875 C 3.675781 11.488281 2.582031 10.757812 1.78125 9.78125 C 0.976562 8.8125 0.578125 7.609375 0.578125 6.171875 C 0.578125 5.304688 0.796875 4.550781 1.234375 3.90625 C 1.679688 3.269531 2.25 2.769531 2.9375 2.40625 C 3.625 2.050781 4.347656 1.875 5.109375 1.875 C 5.796875 1.875 6.390625 1.9375 6.890625 2.0625 C 7.398438 2.1875 7.882812 2.335938 8.34375 2.515625 C 8.800781 2.691406 9.285156 2.84375 9.796875 2.96875 C 10.316406 3.09375 10.914062 3.15625 11.59375 3.15625 C 11.832031 3.15625 12.109375 3.101562 12.421875 3 C 12.734375 2.90625 12.988281 2.75 13.1875 2.53125 C 13.394531 2.320312 13.453125 2.039062 13.359375 1.6875 L 13.46875 1.671875 C 13.84375 2.128906 13.984375 2.664062 13.890625 3.28125 C 13.804688 3.894531 13.515625 4.429688 13.015625 4.890625 C 12.515625 5.347656 11.847656 5.578125 11.015625 5.578125 C 10.296875 5.578125 9.648438 5.46875 9.078125 5.25 C 8.515625 5.039062 7.925781 4.828125 7.3125 4.609375 C 6.707031 4.398438 5.957031 4.296875 5.0625 4.296875 C 4.625 4.296875 4.191406 4.394531 3.765625 4.59375 C 3.335938 4.800781 2.988281 5.082031 2.71875 5.4375 C 2.445312 5.800781 2.3125 6.226562 2.3125 6.71875 C 2.3125 7.851562 2.632812 8.847656 3.28125 9.703125 C 3.9375 10.554688 4.832031 11.222656 5.96875 11.703125 C 7.113281 12.179688 8.414062 12.421875 9.875 12.421875 C 11.007812 12.421875 12.09375 12.203125 13.125 11.765625 C 14.15625 11.335938 15.070312 10.738281 15.875 9.96875 C 16.6875 9.207031 17.332031 8.300781 17.8125 7.25 C 18.289062 6.195312 18.53125 5.046875 18.53125 3.796875 C 18.53125 2.785156 18.253906 1.882812 17.703125 1.09375 C 17.160156 0.300781 16.398438 -0.316406 15.421875 -0.765625 C 14.453125 -1.222656 13.316406 -1.453125 12.015625 -1.453125 C 11.210938 -1.453125 10.5625 -1.410156 10.0625 -1.328125 C 9.570312 -1.242188 9.09375 -1.15625 8.625 -1.0625 C 8.15625 -0.976562 7.539062 -0.9375 6.78125 -0.9375 C 6.195312 -0.9375 5.640625 -1.070312 5.109375 -1.34375 C 4.585938 -1.613281 4.328125 -2.039062 4.328125 -2.625 C 4.328125 -3.226562 4.550781 -3.703125 5 -4.046875 C 5.445312 -4.390625 6.039062 -4.65625 6.78125 -4.84375 C 7.519531 -5.039062 8.328125 -5.238281 9.203125 -5.4375 C 10.078125 -5.632812 10.953125 -5.882812 11.828125 -6.1875 C 12.703125 -6.5 13.507812 -6.929688 14.25 -7.484375 C 15 -8.046875 15.597656 -8.789062 16.046875 -9.71875 C 16.492188 -10.65625 16.71875 -11.847656 16.71875 -13.296875 C 16.71875 -14.617188 16.46875 -15.859375 15.96875 -17.015625 C 15.46875 -18.179688 14.742188 -19.125 13.796875 -19.84375 C 12.859375 -20.5625 11.726562 -20.921875 10.40625 -20.921875 C 9.082031 -20.921875 7.945312 -20.550781 7 -19.8125 C 6.050781 -19.070312 5.320312 -18.113281 4.8125 -16.9375 C 4.3125 -15.769531 4.0625 -14.523438 4.0625 -13.203125 C 4.0625 -11.878906 4.332031 -10.71875 4.875 -9.71875 C 5.425781 -8.726562 6.160156 -7.957031 7.078125 -7.40625 C 8.003906 -6.851562 9.015625 -6.578125 10.109375 -6.578125 L 10.109375 -6.3125 C 9.859375 -6.269531 9.609375 -6.238281 9.359375 -6.21875 C 9.117188 -6.195312 8.882812 -6.1875 8.65625 -6.1875 C 7.226562 -6.1875 5.984375 -6.515625 4.921875 -7.171875 C 3.859375 -7.828125 3.03125 -8.6875 2.4375 -9.75 C 1.84375 -10.8125 1.546875 -11.960938 1.546875 -13.203125 C 1.546875 -14.234375 1.742188 -15.226562 2.140625 -16.1875 C 2.546875 -17.15625 3.128906 -18.019531 3.890625 -18.78125 C 4.648438 -19.539062 5.578125 -20.144531 6.671875 -20.59375 C 7.773438 -21.039062 9.019531 -21.265625 10.40625 -21.265625 L 19.21875 -21.265625 L 19.21875 -20.34375 L 12.921875 -20.984375 C 14.265625 -20.648438 15.398438 -20.085938 16.328125 -19.296875 C 17.265625 -18.503906 17.976562 -17.582031 18.46875 -16.53125 C 18.96875 -15.476562 19.21875 -14.367188 19.21875 -13.203125 C 19.21875 -11.679688 18.953125 -10.429688 18.421875 -9.453125 C 17.898438 -8.472656 17.207031 -7.679688 16.34375 -7.078125 C 15.476562 -6.484375 14.53125 -6.03125 13.5 -5.71875 C 12.46875 -5.414062 11.429688 -5.175781 10.390625 -5 C 9.347656 -4.820312 8.390625 -4.65625 7.515625 -4.5 C 6.648438 -4.34375 5.953125 -4.132812 5.421875 -3.875 C 4.898438 -3.613281 4.640625 -3.21875 4.640625 -2.6875 C 4.640625 -2.195312 4.875 -1.832031 5.34375 -1.59375 C 5.8125 -1.351562 6.289062 -1.234375 6.78125 -1.234375 C 7.71875 -1.234375 8.570312 -1.347656 9.34375 -1.578125 C 10.125 -1.804688 10.90625 -2.035156 11.6875 -2.265625 C 12.46875 -2.503906 13.316406 -2.625 14.234375 -2.625 C 15.378906 -2.625 16.441406 -2.351562 17.421875 -1.8125 C 18.410156 -1.269531 19.207031 -0.53125 19.8125 0.40625 C 20.414062 1.34375 20.71875 2.394531 20.71875 3.5625 C 20.71875 5.257812 20.28125 6.796875 19.40625 8.171875 C 18.53125 9.554688 17.273438 10.65625 15.640625 11.46875 C 14.015625 12.289062 12.070312 12.703125 9.8125 12.703125 Z M 9.8125 12.703125 "/></g></g></g></g><g fill="#000000" fill-opacity="1"><g transform="translate(22.286987, 30.330272)"><g><path d="M 0.578125 -20.390625 L 0.578125 -20.6875 L 5.78125 -20.6875 C 5.78125 -20.570312 5.78125 -20.222656 5.78125 -19.640625 C 5.78125 -19.066406 5.78125 -18.359375 5.78125 -17.515625 C 5.78125 -16.671875 5.785156 -15.753906 5.796875 -14.765625 C 5.804688 -13.785156 5.8125 -12.804688 5.8125 -11.828125 C 5.8125 -10.859375 5.8125 -9.972656 5.8125 -9.171875 C 5.8125 -8.378906 5.8125 -7.742188 5.8125 -7.265625 C 5.8125 -6.785156 5.8125 -6.546875 5.8125 -6.546875 C 5.8125 -5.242188 5.972656 -4.171875 6.296875 -3.328125 C 6.617188 -2.492188 7.035156 -1.835938 7.546875 -1.359375 C 8.066406 -0.878906 8.625 -0.523438 9.21875 -0.296875 C 9.8125 -0.078125 10.390625 0.0507812 10.953125 0.09375 C 11.515625 0.144531 11.992188 0.171875 12.390625 0.171875 C 13.128906 0.171875 13.890625 0.09375 14.671875 -0.0625 C 15.460938 -0.21875 16.210938 -0.421875 16.921875 -0.671875 L 16.921875 -12.5625 C 16.921875 -14.488281 16.867188 -16.019531 16.765625 -17.15625 C 16.671875 -18.300781 16.429688 -19.125 16.046875 -19.625 C 15.671875 -20.132812 15.066406 -20.390625 14.234375 -20.390625 L 14.234375 -20.6875 L 19.4375 -20.6875 L 19.4375 -8.125 C 19.4375 -6.21875 19.484375 -4.6875 19.578125 -3.53125 C 19.671875 -2.382812 19.90625 -1.554688 20.28125 -1.046875 C 20.664062 -0.546875 21.28125 -0.296875 22.125 -0.296875 L 22.125 0 L 18.78125 0 C 17.988281 0 17.097656 0.046875 16.109375 0.140625 C 15.128906 0.242188 14.1875 0.34375 13.28125 0.4375 C 12.375 0.53125 11.640625 0.578125 11.078125 0.578125 C 10.546875 0.578125 9.941406 0.539062 9.265625 0.46875 C 8.597656 0.40625 7.914062 0.257812 7.21875 0.03125 C 6.519531 -0.1875 5.867188 -0.523438 5.265625 -0.984375 C 4.671875 -1.453125 4.1875 -2.085938 3.8125 -2.890625 C 3.445312 -3.691406 3.265625 -4.707031 3.265625 -5.9375 L 3.265625 -12.5625 C 3.265625 -14.488281 3.21875 -16.019531 3.125 -17.15625 C 3.03125 -18.300781 2.789062 -19.125 2.40625 -19.625 C 2.03125 -20.132812 1.421875 -20.390625 0.578125 -20.390625 Z M 0.578125 -20.390625 "/></g></g></g><g fill="#000000" fill-opacity="1"><g transform="translate(45.482141, 30.330272)"><g><path d="M 8.765625 0 L 0.875 0 L 0.875 -0.296875 C 1.71875 -0.296875 2.328125 -0.546875 2.703125 -1.046875 C 3.078125 -1.554688 3.3125 -2.382812 3.40625 -3.53125 C 3.507812 -4.6875 3.5625 -6.21875 3.5625 -8.125 L 3.5625 -12.5625 C 3.5625 -14.488281 3.507812 -16.019531 3.40625 -17.15625 C 3.3125 -18.300781 3.078125 -19.125 2.703125 -19.625 C 2.328125 -20.132812 1.71875 -20.390625 0.875 -20.390625 L 0.875 -20.6875 L 4.265625 -20.6875 C 5.941406 -20.6875 7.6875 -20.78125 9.5 -20.96875 C 11.3125 -21.164062 13.023438 -21.265625 14.640625 -21.265625 C 15.941406 -21.265625 17.019531 -20.953125 17.875 -20.328125 C 18.738281 -19.710938 19.171875 -18.835938 19.171875 -17.703125 C 19.171875 -16.921875 18.957031 -16.253906 18.53125 -15.703125 C 18.113281 -15.148438 17.488281 -14.875 16.65625 -14.875 C 16.25 -14.875 15.878906 -14.992188 15.546875 -15.234375 C 15.210938 -15.484375 15.046875 -15.8125 15.046875 -16.21875 C 15.453125 -16.238281 15.816406 -16.457031 16.140625 -16.875 C 16.460938 -17.289062 16.625 -17.800781 16.625 -18.40625 C 16.625 -19.09375 16.363281 -19.671875 15.84375 -20.140625 C 15.332031 -20.617188 14.550781 -20.859375 13.5 -20.859375 C 13.050781 -20.859375 12.488281 -20.835938 11.8125 -20.796875 C 11.144531 -20.765625 10.453125 -20.707031 9.734375 -20.625 C 9.015625 -20.550781 8.328125 -20.460938 7.671875 -20.359375 C 7.015625 -20.265625 6.484375 -20.148438 6.078125 -20.015625 L 6.078125 -8.125 C 6.078125 -6.21875 6.125 -4.6875 6.21875 -3.53125 C 6.320312 -2.382812 6.5625 -1.554688 6.9375 -1.046875 C 7.320312 -0.546875 7.929688 -0.296875 8.765625 -0.296875 Z M 8.765625 0 "/></g></g></g><g fill="#000000" fill-opacity="1"><g transform="translate(65.726772, 30.330272)"><g><path d="M 8.765625 0 L 0.875 0 L 0.875 -0.296875 C 1.71875 -0.296875 2.328125 -0.546875 2.703125 -1.046875 C 3.078125 -1.554688 3.3125 -2.382812 3.40625 -3.53125 C 3.507812 -4.6875 3.5625 -6.21875 3.5625 -8.125 L 3.5625 -12.5625 C 3.5625 -14.488281 3.507812 -16.019531 3.40625 -17.15625 C 3.3125 -18.300781 3.078125 -19.125 2.703125 -19.625 C 2.328125 -20.132812 1.71875 -20.390625 0.875 -20.390625 L 0.875 -20.6875 L 4.203125 -20.6875 C 5.003906 -20.6875 5.894531 -20.734375 6.875 -20.828125 C 7.863281 -20.929688 8.816406 -21.03125 9.734375 -21.125 C 10.648438 -21.21875 11.378906 -21.265625 11.921875 -21.265625 C 12.617188 -21.265625 13.457031 -21.203125 14.4375 -21.078125 C 15.425781 -20.953125 16.34375 -20.617188 17.1875 -20.078125 C 17.488281 -20.078125 18.003906 -20.175781 18.734375 -20.375 C 19.472656 -20.582031 20.410156 -20.78125 21.546875 -20.96875 C 22.691406 -21.164062 24.019531 -21.265625 25.53125 -21.265625 C 26.0625 -21.265625 26.660156 -21.226562 27.328125 -21.15625 C 28.003906 -21.09375 28.691406 -20.945312 29.390625 -20.71875 C 30.097656 -20.5 30.75 -20.15625 31.34375 -19.6875 C 31.9375 -19.21875 32.414062 -18.582031 32.78125 -17.78125 C 33.15625 -16.988281 33.34375 -15.976562 33.34375 -14.75 L 33.34375 -8.125 C 33.34375 -6.21875 33.390625 -4.6875 33.484375 -3.53125 C 33.578125 -2.382812 33.8125 -1.554688 34.1875 -1.046875 C 34.570312 -0.546875 35.1875 -0.296875 36.03125 -0.296875 L 36.03125 0 L 28.140625 0 L 28.140625 -0.296875 C 28.972656 -0.296875 29.578125 -0.546875 29.953125 -1.046875 C 30.335938 -1.554688 30.578125 -2.382812 30.671875 -3.53125 C 30.773438 -4.6875 30.828125 -6.21875 30.828125 -8.125 C 30.828125 -8.300781 30.828125 -8.617188 30.828125 -9.078125 C 30.828125 -9.535156 30.828125 -10.050781 30.828125 -10.625 C 30.828125 -11.195312 30.820312 -11.75 30.8125 -12.28125 C 30.800781 -12.820312 30.796875 -13.265625 30.796875 -13.609375 C 30.796875 -13.960938 30.796875 -14.140625 30.796875 -14.140625 C 30.796875 -15.441406 30.632812 -16.515625 30.3125 -17.359375 C 29.988281 -18.210938 29.566406 -18.878906 29.046875 -19.359375 C 28.535156 -19.835938 27.984375 -20.179688 27.390625 -20.390625 C 26.796875 -20.609375 26.21875 -20.742188 25.65625 -20.796875 C 25.09375 -20.859375 24.613281 -20.890625 24.21875 -20.890625 C 23.144531 -20.890625 22.085938 -20.765625 21.046875 -20.515625 C 20.003906 -20.273438 19.023438 -19.882812 18.109375 -19.34375 C 18.597656 -18.851562 18.988281 -18.238281 19.28125 -17.5 C 19.570312 -16.757812 19.71875 -15.84375 19.71875 -14.75 L 19.71875 -8.125 C 19.71875 -6.21875 19.765625 -4.6875 19.859375 -3.53125 C 19.960938 -2.382812 20.203125 -1.554688 20.578125 -1.046875 C 20.960938 -0.546875 21.570312 -0.296875 22.40625 -0.296875 L 22.40625 0 L 14.515625 0 L 14.515625 -0.296875 C 15.359375 -0.296875 15.96875 -0.546875 16.34375 -1.046875 C 16.726562 -1.554688 16.96875 -2.382812 17.0625 -3.53125 C 17.15625 -4.6875 17.203125 -6.21875 17.203125 -8.125 C 17.203125 -8.300781 17.203125 -8.617188 17.203125 -9.078125 C 17.203125 -9.535156 17.203125 -10.050781 17.203125 -10.625 C 17.203125 -11.195312 17.195312 -11.75 17.1875 -12.28125 C 17.1875 -12.820312 17.1875 -13.265625 17.1875 -13.609375 C 17.1875 -13.960938 17.1875 -14.140625 17.1875 -14.140625 C 17.1875 -15.441406 17.023438 -16.507812 16.703125 -17.34375 C 16.378906 -18.1875 15.957031 -18.847656 15.4375 -19.328125 C 14.925781 -19.804688 14.375 -20.15625 13.78125 -20.375 C 13.1875 -20.601562 12.601562 -20.738281 12.03125 -20.78125 C 11.46875 -20.832031 10.992188 -20.859375 10.609375 -20.859375 C 9.867188 -20.859375 9.101562 -20.78125 8.3125 -20.625 C 7.519531 -20.46875 6.773438 -20.265625 6.078125 -20.015625 L 6.078125 -8.125 C 6.078125 -6.21875 6.125 -4.6875 6.21875 -3.53125 C 6.320312 -2.382812 6.5625 -1.554688 6.9375 -1.046875 C 7.320312 -0.546875 7.929688 -0.296875 8.765625 -0.296875 Z M 8.765625 0 "/></g></g></g><g fill="#000000" fill-opacity="1"><g transform="translate(102.827335, 30.330272)"><g><path d="M 11.78125 0.578125 C 10.195312 0.578125 8.785156 0.296875 7.546875 -0.265625 C 6.316406 -0.828125 5.269531 -1.609375 4.40625 -2.609375 C 3.550781 -3.617188 2.894531 -4.785156 2.4375 -6.109375 C 1.976562 -7.429688 1.75 -8.84375 1.75 -10.34375 C 1.75 -11.84375 1.976562 -13.253906 2.4375 -14.578125 C 2.894531 -15.898438 3.550781 -17.0625 4.40625 -18.0625 C 5.269531 -19.070312 6.316406 -19.859375 7.546875 -20.421875 C 8.785156 -20.984375 10.195312 -21.265625 11.78125 -21.265625 C 13.351562 -21.265625 14.703125 -21.0625 15.828125 -20.65625 C 16.960938 -20.25 17.890625 -19.710938 18.609375 -19.046875 C 19.328125 -18.390625 19.859375 -17.671875 20.203125 -16.890625 C 20.546875 -16.109375 20.71875 -15.347656 20.71875 -14.609375 C 20.695312 -12.953125 20.226562 -11.65625 19.3125 -10.71875 C 18.394531 -9.789062 17.097656 -9.328125 15.421875 -9.328125 C 14.253906 -9.328125 13.253906 -9.457031 12.421875 -9.71875 C 11.597656 -9.976562 10.867188 -10.273438 10.234375 -10.609375 C 9.609375 -10.953125 9 -11.253906 8.40625 -11.515625 C 7.8125 -11.785156 7.148438 -11.921875 6.421875 -11.921875 C 6.078125 -11.921875 5.765625 -11.828125 5.484375 -11.640625 C 5.203125 -11.453125 5.039062 -11.300781 5 -11.1875 L 4.875 -11.21875 C 4.875 -11.820312 5.128906 -12.363281 5.640625 -12.84375 C 6.160156 -13.320312 6.929688 -13.5625 7.953125 -13.5625 C 8.710938 -13.5625 9.429688 -13.363281 10.109375 -12.96875 C 10.785156 -12.582031 11.4375 -12.128906 12.0625 -11.609375 C 12.6875 -11.097656 13.289062 -10.644531 13.875 -10.25 C 14.457031 -9.863281 15.039062 -9.671875 15.625 -9.671875 C 16.351562 -9.671875 16.945312 -9.941406 17.40625 -10.484375 C 17.875 -11.035156 18.203125 -11.734375 18.390625 -12.578125 C 18.578125 -13.421875 18.59375 -14.328125 18.4375 -15.296875 C 18.28125 -16.265625 17.9375 -17.171875 17.40625 -18.015625 C 16.882812 -18.859375 16.15625 -19.550781 15.21875 -20.09375 C 14.289062 -20.644531 13.125 -20.921875 11.71875 -20.921875 C 10.53125 -20.921875 9.503906 -20.691406 8.640625 -20.234375 C 7.785156 -19.773438 7.078125 -19.164062 6.515625 -18.40625 C 5.953125 -17.644531 5.5 -16.804688 5.15625 -15.890625 C 4.8125 -14.972656 4.570312 -14.035156 4.4375 -13.078125 C 4.300781 -12.128906 4.242188 -11.25 4.265625 -10.4375 C 4.285156 -9.070312 4.488281 -7.785156 4.875 -6.578125 C 5.269531 -5.367188 5.832031 -4.300781 6.5625 -3.375 C 7.289062 -2.445312 8.179688 -1.71875 9.234375 -1.1875 C 10.285156 -0.664062 11.484375 -0.40625 12.828125 -0.40625 C 13.410156 -0.40625 14.0625 -0.492188 14.78125 -0.671875 C 15.5 -0.847656 16.222656 -1.128906 16.953125 -1.515625 C 17.691406 -1.910156 18.363281 -2.425781 18.96875 -3.0625 C 19.582031 -3.707031 20.066406 -4.5 20.421875 -5.4375 L 20.828125 -5.265625 C 20.066406 -3.523438 18.910156 -2.113281 17.359375 -1.03125 C 15.816406 0.0390625 13.957031 0.578125 11.78125 0.578125 Z M 11.78125 0.578125 "/></g></g></g></g></g></svg>